<svg width="31" height="31" viewBox="0 0 31 31" fill="none" xmlns="http://www.w3.org/2000/svg">
<path d="M24.6126 2.2974L2.31381 24.5962C1.18687 25.7232 1.18687 27.5503 2.31381 28.6772C3.44074 29.8041 5.26786 29.8041 6.39479 28.6772L28.6936 6.37838C29.8206 5.25144 29.8206 3.42433 28.6936 2.29739C27.5667 1.17046 25.7396 1.17046 24.6126 2.2974Z" fill="white"/>
<path d="M28.4203 24.3393L6.12142 2.04049C4.99449 0.913559 3.16737 0.913559 2.04044 2.04049C0.91351 3.16742 0.913512 4.99454 2.04044 6.12148L24.3393 28.4203C25.4662 29.5472 27.2933 29.5472 28.4203 28.4203C29.5472 27.2934 29.5472 25.4663 28.4203 24.3393Z" fill="white"/>
</svg>
