<svg width="20" height="26" viewBox="0 0 20 26" fill="none" xmlns="http://www.w3.org/2000/svg">
<path fill-rule="evenodd" clip-rule="evenodd" d="M10.0001 11.8859L17.5428 19.4285C17.7942 19.6714 18.131 19.8058 18.4806 19.8028C18.8302 19.7997 19.1646 19.6595 19.4118 19.4123C19.6591 19.1651 19.7993 18.8307 19.8023 18.4811C19.8054 18.1315 19.671 17.7947 19.4281 17.5432L11.8854 10.0005L19.4281 2.45786C19.671 2.20639 19.8054 1.86959 19.8023 1.51999C19.7993 1.17039 19.6591 0.835978 19.4118 0.588767C19.1646 0.341556 18.8302 0.20133 18.4806 0.198293C18.131 0.195255 17.7942 0.329647 17.5428 0.572525L10.0001 8.11519L2.45742 0.572525C2.20482 0.335651 1.86997 0.206345 1.52373 0.211968C1.17749 0.21759 0.847013 0.3577 0.602236 0.60265C0.357459 0.8476 0.217583 1.17817 0.212205 1.52442C0.206828 1.87067 0.336371 2.20542 0.573423 2.45786L8.11476 10.0005L0.57209 17.5432C0.444743 17.6662 0.343167 17.8133 0.273288 17.976C0.20341 18.1387 0.166628 18.3136 0.165089 18.4907C0.163551 18.6677 0.197286 18.8433 0.264327 19.0071C0.331369 19.171 0.430373 19.3199 0.555563 19.4451C0.680753 19.5702 0.829623 19.6692 0.993485 19.7363C1.15735 19.8033 1.33292 19.8371 1.50996 19.8355C1.687 19.834 1.86196 19.7972 2.02463 19.7273C2.1873 19.6574 2.33443 19.5559 2.45742 19.4285L10.0001 11.8859Z" fill="white"/>
</svg>
