<svg width="24" height="25" viewBox="0 0 24 25" fill="none" xmlns="http://www.w3.org/2000/svg">
<g clip-path="url(#clip0_1641_2440)">
<path fill-rule="evenodd" clip-rule="evenodd" d="M21.0678 0.512451C22.6861 0.512451 24 1.82636 24 3.44467V21.5802C24 23.1985 22.6861 24.5125 21.0678 24.5125H16.0771V15.4696H19.199L19.793 11.5967H16.0771V9.0834C16.0771 8.02389 16.5961 6.99109 18.2605 6.99109H19.95V3.6939C19.95 3.6939 18.4167 3.43225 16.9508 3.43225C13.8905 3.43225 11.8902 5.28704 11.8902 8.64494V11.5967H8.48836V15.4696H11.8902V24.5125H2.93222C1.31391 24.5125 0 23.1985 0 21.5802V3.44467C0 1.82636 1.31386 0.512451 2.93222 0.512451L21.0678 0.512451Z" fill="#1777F2"/>
</g>
<defs>
<clipPath id="clip0_1641_2440">
<rect width="24" height="24" fill="white" transform="translate(0 0.512451)"/>
</clipPath>
</defs>
</svg>
