<svg width="23" height="20" viewBox="0 0 23 20" fill="none" xmlns="http://www.w3.org/2000/svg">
<path d="M12.3612 19.5799C12.2326 19.4473 12.1305 19.2896 12.0609 19.116C11.9912 18.9424 11.9554 18.7563 11.9554 18.5683C11.9554 18.3804 11.9912 18.1943 12.0609 18.0207C12.1305 17.8471 12.2326 17.6894 12.3612 17.5567L18.2814 11.4288H1.37973C1.0138 11.4288 0.662863 11.2784 0.404114 11.0105C0.145365 10.7427 0 10.3794 0 10.0007C0 9.62191 0.145365 9.25865 0.404114 8.99082C0.662863 8.72299 1.0138 8.57253 1.37973 8.57253H18.2814L12.3612 2.44222C12.102 2.17393 11.9564 1.81005 11.9564 1.43062C11.9564 1.0512 12.102 0.687313 12.3612 0.419019C12.6204 0.150726 12.972 3.99788e-09 13.3385 0C13.7051 -3.99788e-09 14.0566 0.150726 14.3158 0.419019L22.5942 8.98788C22.7228 9.12056 22.8249 9.27822 22.8945 9.45181C22.9642 9.62541 23 9.81152 23 9.99948C23 10.1874 22.9642 10.3736 22.8945 10.5472C22.8249 10.7208 22.7228 10.8784 22.5942 11.0111L14.3158 19.5799C14.1876 19.7131 14.0353 19.8187 13.8676 19.8908C13.6999 19.9629 13.5201 20 13.3385 20C13.1569 20 12.9771 19.9629 12.8094 19.8908C12.6417 19.8187 12.4894 19.7131 12.3612 19.5799Z" fill="white"/>
</svg>
