<svg width="36" height="29" viewBox="0 0 36 29" fill="none" xmlns="http://www.w3.org/2000/svg">
<path d="M32.7783 0H2.74797C1.23031 0 0 1.23031 0 2.74797C0 4.26563 1.23031 5.49594 2.74797 5.49594H32.7783C34.2959 5.49594 35.5262 4.26563 35.5262 2.74797C35.5262 1.23031 34.2959 0 32.7783 0Z" fill="white"/>
<path d="M32.7783 11.4961H2.74797C1.23031 11.4961 0 12.7264 0 14.2441C0 15.7617 1.23031 16.992 2.74797 16.992H32.7783C34.2959 16.992 35.5262 15.7617 35.5262 14.2441C35.5262 12.7264 34.2959 11.4961 32.7783 11.4961Z" fill="white"/>
<path d="M32.7783 22.9922H2.74797C1.23031 22.9922 0 24.2225 0 25.7402C0 27.2578 1.23031 28.4881 2.74797 28.4881H32.7783C34.2959 28.4881 35.5262 27.2578 35.5262 25.7402C35.5262 24.2225 34.2959 22.9922 32.7783 22.9922Z" fill="white"/>
</svg>
