<svg width="24" height="25" viewBox="0 0 24 25" fill="none" xmlns="http://www.w3.org/2000/svg">
<g clip-path="url(#clip0_1641_2442)">
<mask id="mask0_1641_2442" style="mask-type:luminance" maskUnits="userSpaceOnUse" x="0" y="0" width="24" height="25">
<path d="M19.5 0.512451H4.5C3.30759 0.515914 2.16501 0.991132 1.32184 1.8343C0.47868 2.67746 0.00346273 3.82004 0 5.01245L0 20.0125C0.00346273 21.2049 0.47868 22.3474 1.32184 23.1906C2.16501 24.0338 3.30759 24.509 4.5 24.5125H19.5C20.6924 24.509 21.835 24.0338 22.6782 23.1906C23.5213 22.3474 23.9965 21.2049 24 20.0125V5.01245C23.9965 3.82004 23.5213 2.67746 22.6782 1.8343C21.835 0.991132 20.6924 0.515914 19.5 0.512451ZM22.5 20.0125C22.5 20.8081 22.1839 21.5712 21.6213 22.1338C21.0587 22.6964 20.2956 23.0125 19.5 23.0125H4.5C3.70435 23.0125 2.94129 22.6964 2.37868 22.1338C1.81607 21.5712 1.5 20.8081 1.5 20.0125V5.01245C1.5 4.2168 1.81607 3.45374 2.37868 2.89113C2.94129 2.32852 3.70435 2.01245 4.5 2.01245H19.5C20.2956 2.01245 21.0587 2.32852 21.6213 2.89113C22.1839 3.45374 22.5 4.2168 22.5 5.01245V20.0125Z" fill="white"/>
</mask>
<g mask="url(#mask0_1641_2442)">
<path d="M5.15625 51.1375C20.5339 51.1375 33 38.6714 33 23.2937C33 7.91602 20.5339 -4.55005 5.15625 -4.55005C-10.2214 -4.55005 -22.6875 7.91602 -22.6875 23.2937C-22.6875 38.6714 -10.2214 51.1375 5.15625 51.1375Z" fill="url(#paint0_radial_1641_2442)"/>
</g>
<mask id="mask1_1641_2442" style="mask-type:luminance" maskUnits="userSpaceOnUse" x="9" y="9" width="6" height="7">
<path d="M12 9.51245C11.4067 9.51245 10.8266 9.6884 10.3333 10.018C9.83994 10.3477 9.45543 10.8162 9.22836 11.3644C9.0013 11.9126 8.94189 12.5158 9.05765 13.0977C9.1734 13.6797 9.45912 14.2142 9.87868 14.6338C10.2982 15.0533 10.8328 15.3391 11.4147 15.4548C11.9967 15.5706 12.5999 15.5112 13.1481 15.2841C13.6962 15.057 14.1648 14.6725 14.4944 14.1792C14.8241 13.6858 15 13.1058 15 12.5125C15 11.7168 14.6839 10.9537 14.1213 10.3911C13.5587 9.82852 12.7957 9.51245 12 9.51245ZM12 14.0125C11.7033 14.0125 11.4133 13.9245 11.1666 13.7597C10.92 13.5948 10.7277 13.3606 10.6142 13.0865C10.5007 12.8124 10.4709 12.5108 10.5288 12.2198C10.5867 11.9288 10.7296 11.6616 10.9393 11.4518C11.1491 11.242 11.4164 11.0992 11.7074 11.0413C11.9983 10.9834 12.2999 11.0131 12.574 11.1266C12.8481 11.2402 13.0824 11.4324 13.2472 11.6791C13.412 11.9258 13.5 12.2158 13.5 12.5125C13.5 12.9103 13.342 13.2918 13.0607 13.5731C12.7794 13.8544 12.3978 14.0125 12 14.0125Z" fill="white"/>
</mask>
<g mask="url(#mask1_1641_2442)">
<path d="M5.15625 51.1375C20.5339 51.1375 33 38.6714 33 23.2937C33 7.91602 20.5339 -4.55005 5.15625 -4.55005C-10.2214 -4.55005 -22.6875 7.91602 -22.6875 23.2937C-22.6875 38.6714 -10.2214 51.1375 5.15625 51.1375Z" fill="url(#paint1_radial_1641_2442)"/>
</g>
<mask id="mask2_1641_2442" style="mask-type:luminance" maskUnits="userSpaceOnUse" x="5" y="5" width="14" height="15">
<path d="M15.75 19.2625H8.25C7.45435 19.2625 6.69129 18.9464 6.12868 18.3838C5.56607 17.8212 5.25 17.0581 5.25 16.2625V8.76245C5.25 7.9668 5.56607 7.20374 6.12868 6.64113C6.69129 6.07852 7.45435 5.76245 8.25 5.76245H15.75C16.5456 5.76245 17.3087 6.07852 17.8713 6.64113C18.4339 7.20374 18.75 7.9668 18.75 8.76245V16.2625C18.75 17.0581 18.4339 17.8212 17.8713 18.3838C17.3087 18.9464 16.5456 19.2625 15.75 19.2625ZM8.25 7.26245C7.85218 7.26245 7.47064 7.42049 7.18934 7.70179C6.90804 7.9831 6.75 8.36463 6.75 8.76245V16.2625C6.75 16.6603 6.90804 17.0418 7.18934 17.3231C7.47064 17.6044 7.85218 17.7625 8.25 17.7625H15.75C16.1478 17.7625 16.5294 17.6044 16.8107 17.3231C17.092 17.0418 17.25 16.6603 17.25 16.2625V8.76245C17.25 8.36463 17.092 7.9831 16.8107 7.70179C16.5294 7.42049 16.1478 7.26245 15.75 7.26245H8.25Z" fill="white"/>
</mask>
<g mask="url(#mask2_1641_2442)">
<path d="M5.15625 51.1375C20.5339 51.1375 33 38.6714 33 23.2937C33 7.91602 20.5339 -4.55005 5.15625 -4.55005C-10.2214 -4.55005 -22.6875 7.91602 -22.6875 23.2937C-22.6875 38.6714 -10.2214 51.1375 5.15625 51.1375Z" fill="url(#paint2_radial_1641_2442)"/>
</g>
<mask id="mask3_1641_2442" style="mask-type:luminance" maskUnits="userSpaceOnUse" x="14" y="8" width="3" height="3">
<path d="M15.375 10.075C15.8928 10.075 16.3125 9.65522 16.3125 9.13745C16.3125 8.61968 15.8928 8.19995 15.375 8.19995C14.8572 8.19995 14.4375 8.61968 14.4375 9.13745C14.4375 9.65522 14.8572 10.075 15.375 10.075Z" fill="white"/>
</mask>
<g mask="url(#mask3_1641_2442)">
<path d="M2.60054 61.6393C21.8232 61.6393 37.4062 46.0563 37.4062 26.8337C37.4062 7.61109 21.8232 -7.97192 2.60054 -7.97192C-16.6221 -7.97192 -32.2051 7.61109 -32.2051 26.8337C-32.2051 46.0563 -16.6221 61.6393 2.60054 61.6393Z" fill="url(#paint3_radial_1641_2442)"/>
</g>
</g>
<defs>
<radialGradient id="paint0_radial_1641_2442" cx="0" cy="0" r="1" gradientUnits="userSpaceOnUse" gradientTransform="translate(5.15625 23.2937) scale(27.8438)">
<stop stop-color="#FFD676"/>
<stop offset="0.25" stop-color="#F2A454"/>
<stop offset="0.38" stop-color="#F05C3C"/>
<stop offset="0.7" stop-color="#C22F86"/>
<stop offset="0.96" stop-color="#6666AD"/>
<stop offset="0.99" stop-color="#5C6CB2"/>
</radialGradient>
<radialGradient id="paint1_radial_1641_2442" cx="0" cy="0" r="1" gradientUnits="userSpaceOnUse" gradientTransform="translate(5.15625 23.2937) scale(27.8438)">
<stop stop-color="#FFD676"/>
<stop offset="0.25" stop-color="#F2A454"/>
<stop offset="0.38" stop-color="#F05C3C"/>
<stop offset="0.7" stop-color="#C22F86"/>
<stop offset="0.96" stop-color="#6666AD"/>
<stop offset="0.99" stop-color="#5C6CB2"/>
</radialGradient>
<radialGradient id="paint2_radial_1641_2442" cx="0" cy="0" r="1" gradientUnits="userSpaceOnUse" gradientTransform="translate(5.15625 23.2937) scale(27.8438)">
<stop stop-color="#FFD676"/>
<stop offset="0.25" stop-color="#F2A454"/>
<stop offset="0.38" stop-color="#F05C3C"/>
<stop offset="0.7" stop-color="#C22F86"/>
<stop offset="0.96" stop-color="#6666AD"/>
<stop offset="0.99" stop-color="#5C6CB2"/>
</radialGradient>
<radialGradient id="paint3_radial_1641_2442" cx="0" cy="0" r="1" gradientUnits="userSpaceOnUse" gradientTransform="translate(2.60055 26.8337) scale(34.8056)">
<stop stop-color="#FFD676"/>
<stop offset="0.25" stop-color="#F2A454"/>
<stop offset="0.38" stop-color="#F05C3C"/>
<stop offset="0.7" stop-color="#C22F86"/>
<stop offset="0.96" stop-color="#6666AD"/>
<stop offset="0.99" stop-color="#5C6CB2"/>
</radialGradient>
<clipPath id="clip0_1641_2442">
<rect width="24" height="24" fill="white" transform="translate(0 0.512451)"/>
</clipPath>
</defs>
</svg>
