<svg width="163" height="62" viewBox="0 0 163 62" fill="none" xmlns="http://www.w3.org/2000/svg">
<path d="M39.2915 34.1117C39.2915 34.2121 39.2562 34.3024 39.1855 34.3827C39.125 34.463 39.019 34.5282 38.8676 34.5784C38.7163 34.6286 38.5144 34.6688 38.2621 34.6989C38.0098 34.729 37.6919 34.744 37.3085 34.744C36.9149 34.744 36.5869 34.729 36.3245 34.6989C36.0722 34.6688 35.8704 34.6286 35.719 34.5784C35.5777 34.5282 35.4718 34.463 35.4011 34.3827C35.3406 34.3024 35.3103 34.2121 35.3103 34.1117V26.2374H27.9836V34.1117C27.9836 34.2121 27.9534 34.3024 27.8928 34.3827C27.8323 34.463 27.7263 34.5282 27.5749 34.5784C27.4236 34.6286 27.2217 34.6688 26.9694 34.6989C26.7171 34.729 26.3942 34.744 26.0006 34.744C25.6171 34.744 25.2942 34.729 25.0318 34.6989C24.7795 34.6688 24.5777 34.6286 24.4263 34.5784C24.2749 34.5282 24.1639 34.463 24.0933 34.3827C24.0327 34.3024 24.0024 34.2121 24.0024 34.1117V15.7132C24.0024 15.6128 24.0327 15.5225 24.0933 15.4422C24.1639 15.3619 24.2749 15.2966 24.4263 15.2464C24.5777 15.1962 24.7795 15.1561 25.0318 15.126C25.2942 15.0959 25.6171 15.0808 26.0006 15.0808C26.3942 15.0808 26.7171 15.0959 26.9694 15.126C27.2217 15.1561 27.4236 15.1962 27.5749 15.2464C27.7263 15.2966 27.8323 15.3619 27.8928 15.4422C27.9534 15.5225 27.9836 15.6128 27.9836 15.7132V22.8648H35.3103V15.7132C35.3103 15.6128 35.3406 15.5225 35.4011 15.4422C35.4718 15.3619 35.5777 15.2966 35.719 15.2464C35.8704 15.1962 36.0722 15.1561 36.3245 15.126C36.5869 15.0959 36.9149 15.0808 37.3085 15.0808C37.6919 15.0808 38.0098 15.0959 38.2621 15.126C38.5144 15.1561 38.7163 15.1962 38.8676 15.2464C39.019 15.2966 39.125 15.3619 39.1855 15.4422C39.2562 15.5225 39.2915 15.6128 39.2915 15.7132V34.1117Z" fill="white"/>
<path d="M54.5024 27.0353C54.5024 27.4971 54.3965 27.8383 54.1846 28.0591C53.9827 28.28 53.7001 28.3904 53.3368 28.3904H45.1171C45.1171 28.9625 45.1827 29.4845 45.3139 29.9562C45.4552 30.4179 45.6721 30.8144 45.9648 31.1456C46.2675 31.4668 46.651 31.7128 47.1153 31.8834C47.5896 32.054 48.1547 32.1393 48.8107 32.1393C49.4767 32.1393 50.0621 32.0942 50.5666 32.0038C51.0712 31.9035 51.5052 31.7981 51.8685 31.6877C52.2419 31.5672 52.5497 31.4618 52.7919 31.3715C53.0341 31.2711 53.2309 31.2209 53.3823 31.2209C53.4731 31.2209 53.5488 31.241 53.6093 31.2811C53.6699 31.3113 53.7203 31.3715 53.7607 31.4618C53.8011 31.5522 53.8263 31.6826 53.8364 31.8533C53.8566 32.0139 53.8667 32.2196 53.8667 32.4706C53.8667 32.6914 53.8616 32.8821 53.8515 33.0427C53.8414 33.1933 53.8263 33.3238 53.8061 33.4342C53.7859 33.5446 53.7556 33.6399 53.7153 33.7202C53.6749 33.7905 53.6194 33.8608 53.5488 33.931C53.4882 34.0013 53.3116 34.0966 53.019 34.2171C52.7263 34.3375 52.3529 34.458 51.8988 34.5784C51.4446 34.6888 50.9249 34.7842 50.3396 34.8645C49.7543 34.9548 49.1286 35 48.4625 35C47.2616 35 46.207 34.8494 45.2987 34.5483C44.4006 34.2472 43.6487 33.7905 43.0432 33.1782C42.4377 32.5659 41.9836 31.7931 41.6808 30.8596C41.3882 29.9261 41.2418 28.832 41.2418 27.5774C41.2418 26.3829 41.3983 25.3089 41.7111 24.3554C42.024 23.3918 42.4781 22.5787 43.0735 21.9163C43.6689 21.2438 44.3905 20.7319 45.2382 20.3806C46.096 20.0292 47.0597 19.8536 48.1295 19.8536C49.2598 19.8536 50.2235 20.0192 51.0208 20.3504C51.8281 20.6817 52.4891 21.1434 53.0038 21.7356C53.5185 22.3178 53.8969 23.0103 54.1391 23.8133C54.3813 24.6163 54.5024 25.4896 54.5024 26.4331V27.0353ZM50.8088 25.9513C50.8391 24.8873 50.6222 24.0542 50.1579 23.452C49.7038 22.8397 48.9974 22.5336 48.0387 22.5336C47.5542 22.5336 47.1304 22.6239 46.7671 22.8046C46.4139 22.9853 46.1162 23.2312 45.874 23.5423C45.6419 23.8434 45.4602 24.2048 45.329 24.6264C45.2079 25.0379 45.1373 25.4795 45.1171 25.9513H50.8088Z" fill="white"/>
<path d="M65.1763 21.9614C65.1763 22.3228 65.1662 22.6189 65.1461 22.8497C65.1259 23.0806 65.0956 23.2613 65.0552 23.3918C65.0149 23.5222 64.9594 23.6126 64.8887 23.6628C64.8282 23.713 64.7474 23.7381 64.6465 23.7381C64.5658 23.7381 64.4749 23.723 64.374 23.6929C64.2731 23.6527 64.1571 23.6126 64.0259 23.5724C63.9048 23.5323 63.7685 23.4972 63.6171 23.467C63.4658 23.4269 63.2993 23.4068 63.1176 23.4068C62.9057 23.4068 62.6937 23.452 62.4818 23.5423C62.2699 23.6226 62.0479 23.7531 61.8158 23.9338C61.5937 24.1145 61.3566 24.3554 61.1043 24.6565C60.8621 24.9576 60.5997 25.329 60.3171 25.7706V34.1418C60.3171 34.2422 60.2869 34.3325 60.2263 34.4128C60.1658 34.4831 60.0598 34.5433 59.9084 34.5935C59.7671 34.6437 59.5754 34.6788 59.3332 34.6989C59.091 34.729 58.7832 34.744 58.4098 34.744C58.0364 34.744 57.7286 34.729 57.4864 34.6989C57.2442 34.6788 57.0474 34.6437 56.896 34.5935C56.7547 34.5433 56.6538 34.4831 56.5933 34.4128C56.5327 34.3325 56.5024 34.2422 56.5024 34.1418V20.7118C56.5024 20.6114 56.5277 20.5261 56.5781 20.4558C56.6286 20.3755 56.7194 20.3103 56.8506 20.2601C56.9818 20.2099 57.1483 20.1748 57.3502 20.1547C57.5621 20.1246 57.8245 20.1095 58.1373 20.1095C58.4602 20.1095 58.7277 20.1246 58.9396 20.1547C59.1515 20.1748 59.313 20.2099 59.424 20.2601C59.5451 20.3103 59.6309 20.3755 59.6814 20.4558C59.7318 20.5261 59.757 20.6114 59.757 20.7118V22.383C60.1103 21.8811 60.4433 21.4696 60.7561 21.1484C61.069 20.8172 61.3667 20.5562 61.6493 20.3655C61.9318 20.1748 62.2144 20.0443 62.497 19.974C62.7795 19.8937 63.0621 19.8536 63.3447 19.8536C63.4759 19.8536 63.6171 19.8636 63.7685 19.8837C63.9199 19.8937 64.0763 19.9188 64.2378 19.959C64.3993 19.9891 64.5405 20.0292 64.6616 20.0794C64.7827 20.1196 64.8685 20.1647 64.919 20.2149C64.9795 20.2651 65.0199 20.3203 65.0401 20.3806C65.0704 20.4408 65.0956 20.5261 65.1158 20.6365C65.136 20.7369 65.1511 20.8925 65.1612 21.1032C65.1713 21.314 65.1763 21.6001 65.1763 21.9614Z" fill="white"/>
<path d="M76.5543 32.862C76.5543 33.3037 76.524 33.645 76.4635 33.8859C76.413 34.1167 76.3424 34.2823 76.2516 34.3827C76.1607 34.473 76.0245 34.5584 75.8428 34.6387C75.6713 34.7089 75.4644 34.7691 75.2222 34.8193C74.9901 34.8795 74.7327 34.9247 74.4502 34.9548C74.1777 34.9849 73.9002 35 73.6176 35C72.8607 35 72.2048 34.9046 71.6497 34.7139C71.0947 34.5232 70.6355 34.2321 70.2722 33.8407C69.9089 33.4392 69.6414 32.9373 69.4699 32.3351C69.2983 31.7328 69.2125 31.0202 69.2125 30.1971V23.3165H67.5928C67.4011 23.3165 67.2547 23.2011 67.1538 22.9702C67.0529 22.7293 67.0024 22.3328 67.0024 21.7808C67.0024 21.4897 67.0125 21.2438 67.0327 21.043C67.063 20.8423 67.1034 20.6867 67.1538 20.5763C67.2043 20.4558 67.2648 20.3705 67.3355 20.3203C67.4162 20.2701 67.507 20.245 67.6079 20.245H69.2125V17.2489C69.2125 17.1485 69.2378 17.0582 69.2882 16.9779C69.3488 16.8976 69.4497 16.8323 69.591 16.7821C69.7424 16.7219 69.9391 16.6818 70.1814 16.6617C70.4336 16.6316 70.7414 16.6165 71.1047 16.6165C71.4781 16.6165 71.7859 16.6316 72.0282 16.6617C72.2804 16.6818 72.4772 16.7219 72.6185 16.7821C72.7598 16.8323 72.8607 16.8976 72.9213 16.9779C72.9818 17.0582 73.0121 17.1485 73.0121 17.2489V20.245H75.9488C76.0497 20.245 76.1355 20.2701 76.2061 20.3203C76.2869 20.3705 76.3525 20.4558 76.4029 20.5763C76.4534 20.6867 76.4887 20.8423 76.5089 21.043C76.5392 21.2438 76.5543 21.4897 76.5543 21.7808C76.5543 22.3328 76.5039 22.7293 76.4029 22.9702C76.302 23.2011 76.1557 23.3165 75.9639 23.3165H73.0121V29.625C73.0121 30.3577 73.1281 30.9098 73.3603 31.2811C73.5924 31.6425 74.0061 31.8232 74.6016 31.8232C74.8034 31.8232 74.985 31.8081 75.1465 31.778C75.308 31.7378 75.4493 31.6977 75.5704 31.6576C75.7016 31.6074 75.8075 31.5672 75.8883 31.5371C75.9791 31.497 76.0598 31.4769 76.1305 31.4769C76.191 31.4769 76.2465 31.497 76.297 31.5371C76.3575 31.5672 76.4029 31.6375 76.4332 31.7479C76.4635 31.8483 76.4887 31.9888 76.5089 32.1695C76.5392 32.3501 76.5543 32.581 76.5543 32.862Z" fill="white"/>
<path d="M88.8631 30.3477C88.8631 31.1105 88.7167 31.783 88.4241 32.3652C88.1415 32.9474 87.7378 33.4342 87.2131 33.8256C86.6883 34.2171 86.0676 34.5082 85.3511 34.6989C84.6346 34.8996 83.8575 35 83.0199 35C82.5153 35 82.0309 34.9598 81.5667 34.8795C81.1126 34.8093 80.7039 34.719 80.3406 34.6085C79.9773 34.4881 79.6745 34.3676 79.4323 34.2472C79.1901 34.1267 79.0135 34.0163 78.9025 33.916C78.7915 33.8055 78.7057 33.6399 78.6451 33.4191C78.5846 33.1882 78.5543 32.852 78.5543 32.4104C78.5543 32.1193 78.5644 31.8884 78.5846 31.7178C78.6048 31.5371 78.635 31.3966 78.6754 31.2962C78.7158 31.1858 78.7662 31.1155 78.8268 31.0854C78.8873 31.0453 78.963 31.0252 79.0538 31.0252C79.1649 31.0252 79.3263 31.0904 79.5383 31.2209C79.7603 31.3414 80.0328 31.4769 80.3557 31.6274C80.6786 31.778 81.052 31.9185 81.4759 32.049C81.9098 32.1795 82.3993 32.2447 82.9442 32.2447C83.2874 32.2447 83.5901 32.2096 83.8525 32.1393C84.125 32.0691 84.3571 31.9687 84.5488 31.8382C84.7507 31.7077 84.902 31.5421 85.003 31.3414C85.1039 31.1406 85.1543 30.9098 85.1543 30.6488C85.1543 30.3477 85.0585 30.0917 84.8667 29.8809C84.6851 29.6601 84.4378 29.4694 84.125 29.3088C83.8222 29.1482 83.4741 28.9976 83.0805 28.8571C82.697 28.7166 82.2984 28.561 81.8846 28.3904C81.4809 28.2197 81.0823 28.024 80.6887 27.8032C80.3052 27.5824 79.9571 27.3114 79.6442 26.9902C79.3415 26.669 79.0942 26.2825 78.9025 25.8308C78.7208 25.3792 78.63 24.8371 78.63 24.2048C78.63 23.5624 78.7561 22.9752 79.0084 22.4432C79.2607 21.9012 79.624 21.4395 80.0984 21.0581C80.5727 20.6767 81.1479 20.3805 81.8241 20.1698C82.5103 19.959 83.2773 19.8536 84.125 19.8536C84.5488 19.8536 84.9575 19.8837 85.3511 19.9439C85.7548 20.0041 86.1181 20.0794 86.441 20.1698C86.764 20.2601 87.0365 20.3605 87.2585 20.4709C87.4805 20.5713 87.6369 20.6616 87.7277 20.7419C87.8287 20.8122 87.8993 20.8874 87.9397 20.9677C87.98 21.038 88.0103 21.1283 88.0305 21.2387C88.0507 21.3391 88.0658 21.4696 88.0759 21.6302C88.0961 21.7808 88.1062 21.9715 88.1062 22.2023C88.1062 22.4733 88.0961 22.6942 88.0759 22.8648C88.0658 23.0354 88.0406 23.1709 88.0002 23.2713C87.9699 23.3717 87.9245 23.442 87.864 23.4821C87.8034 23.5122 87.7328 23.5273 87.652 23.5273C87.5612 23.5273 87.4199 23.4771 87.2282 23.3767C87.0365 23.2663 86.7943 23.1509 86.5016 23.0304C86.219 22.91 85.886 22.7996 85.5025 22.6992C85.1291 22.5888 84.7002 22.5336 84.2158 22.5336C83.8727 22.5336 83.575 22.5687 83.3227 22.639C83.0704 22.7092 82.8635 22.8096 82.702 22.9401C82.5406 23.0706 82.4195 23.2261 82.3387 23.4068C82.258 23.5775 82.2176 23.7631 82.2176 23.9639C82.2176 24.2751 82.3135 24.536 82.5052 24.7468C82.697 24.9576 82.9493 25.1433 83.2621 25.3039C83.575 25.4645 83.9282 25.615 84.3218 25.7556C84.7254 25.8961 85.1291 26.0517 85.5328 26.2223C85.9465 26.3829 86.3502 26.5736 86.7438 26.7944C87.1475 27.0153 87.5057 27.2863 87.8186 27.6075C88.1314 27.9287 88.3837 28.3151 88.5754 28.7668C88.7672 29.2084 88.8631 29.7354 88.8631 30.3477Z" fill="white"/>
<path d="M123.295 34.202C123.295 34.3024 123.27 34.3927 123.219 34.473C123.169 34.5433 123.078 34.6035 122.947 34.6537C122.825 34.7039 122.659 34.739 122.447 34.7591C122.245 34.7892 121.988 34.8043 121.675 34.8043C121.342 34.8043 121.07 34.7892 120.858 34.7591C120.656 34.739 120.494 34.7039 120.373 34.6537C120.252 34.6035 120.166 34.5433 120.116 34.473C120.065 34.3927 120.04 34.3024 120.04 34.202V32.6513C119.293 33.4542 118.531 34.0565 117.754 34.458C116.987 34.8595 116.19 35.0602 115.363 35.0602C114.434 35.0602 113.652 34.9097 113.016 34.6085C112.391 34.3074 111.881 33.8959 111.487 33.3739C111.104 32.852 110.826 32.2498 110.655 31.5672C110.493 30.8746 110.413 30.0164 110.413 28.9926V20.772C110.413 20.6716 110.438 20.5863 110.488 20.5161C110.549 20.4358 110.65 20.3705 110.791 20.3203C110.942 20.2701 111.139 20.235 111.381 20.2149C111.634 20.1848 111.941 20.1698 112.305 20.1698C112.678 20.1698 112.986 20.1848 113.228 20.2149C113.47 20.235 113.662 20.2701 113.803 20.3203C113.955 20.3705 114.061 20.4358 114.121 20.5161C114.182 20.5863 114.212 20.6716 114.212 20.772V28.3603C114.212 29.0629 114.258 29.5999 114.348 29.9713C114.439 30.3427 114.575 30.6638 114.757 30.9349C114.949 31.1958 115.186 31.4016 115.469 31.5522C115.761 31.6927 116.099 31.7629 116.483 31.7629C116.967 31.7629 117.452 31.5873 117.936 31.236C118.431 30.8847 118.955 30.3728 119.51 29.7003V20.772C119.51 20.6716 119.536 20.5863 119.586 20.5161C119.647 20.4358 119.747 20.3705 119.889 20.3203C120.04 20.2701 120.237 20.235 120.479 20.2149C120.721 20.1848 121.029 20.1698 121.403 20.1698C121.776 20.1698 122.084 20.1848 122.326 20.2149C122.568 20.235 122.76 20.2701 122.901 20.3203C123.042 20.3705 123.143 20.4358 123.204 20.5161C123.264 20.5863 123.295 20.6716 123.295 20.772V34.202Z" fill="white"/>
<path d="M138.888 27.2461C138.888 28.4406 138.757 29.5146 138.495 30.4681C138.232 31.4217 137.854 32.2347 137.359 32.9072C136.865 33.5797 136.254 34.0966 135.528 34.458C134.811 34.8193 133.994 35 133.076 35C132.621 35 132.198 34.9548 131.804 34.8645C131.41 34.7842 131.032 34.6487 130.669 34.458C130.315 34.2673 129.962 34.0264 129.609 33.7353C129.266 33.4442 128.913 33.0929 128.549 32.6814V34.1418C128.549 34.2522 128.519 34.3476 128.459 34.4279C128.408 34.4981 128.317 34.5584 128.186 34.6085C128.065 34.6587 127.898 34.6939 127.687 34.7139C127.475 34.734 127.217 34.744 126.914 34.744C126.602 34.744 126.339 34.734 126.127 34.7139C125.926 34.6939 125.759 34.6587 125.628 34.6085C125.507 34.5584 125.421 34.4981 125.37 34.4279C125.32 34.3476 125.295 34.2522 125.295 34.1418V14.3431C125.295 14.2427 125.325 14.1524 125.386 14.0721C125.446 13.9918 125.547 13.9265 125.688 13.8763C125.84 13.8161 126.037 13.7709 126.279 13.7408C126.521 13.7107 126.829 13.6957 127.202 13.6957C127.576 13.6957 127.883 13.7107 128.126 13.7408C128.368 13.7709 128.559 13.8161 128.701 13.8763C128.852 13.9265 128.958 13.9918 129.019 14.0721C129.079 14.1524 129.109 14.2427 129.109 14.3431V21.7657C129.453 21.4244 129.796 21.1334 130.139 20.8925C130.482 20.6516 130.825 20.4558 131.168 20.3053C131.511 20.1447 131.865 20.0292 132.228 19.959C132.591 19.8887 132.975 19.8536 133.378 19.8536C134.377 19.8536 135.225 20.0543 135.921 20.4558C136.618 20.8473 137.183 21.3793 137.617 22.0518C138.061 22.7243 138.384 23.5122 138.586 24.4156C138.787 25.3089 138.888 26.2524 138.888 27.2461ZM134.937 27.5171C134.937 26.945 134.892 26.3929 134.801 25.861C134.72 25.329 134.574 24.8572 134.362 24.4457C134.15 24.0342 133.873 23.7079 133.53 23.467C133.197 23.2161 132.773 23.0906 132.258 23.0906C132.006 23.0906 131.759 23.1258 131.516 23.196C131.274 23.2663 131.022 23.3867 130.759 23.5574C130.507 23.728 130.245 23.9488 129.972 24.2198C129.7 24.4909 129.412 24.8271 129.109 25.2286V29.6852C129.644 30.3677 130.154 30.8897 130.638 31.251C131.133 31.6023 131.648 31.778 132.182 31.778C132.677 31.778 133.096 31.6525 133.439 31.4016C133.782 31.1507 134.065 30.8244 134.287 30.423C134.519 30.0215 134.685 29.5648 134.786 29.0528C134.887 28.5409 134.937 28.029 134.937 27.5171Z" fill="white"/>
<path d="M102.247 6.77757C102.247 6.84154 102.245 6.89752 102.241 6.94551C102.237 6.99349 102.229 7.03547 102.217 7.07146C102.208 7.10745 102.196 7.13944 102.18 7.16743C102.164 7.19542 102.135 7.2294 102.094 7.26939C102.053 7.30937 101.968 7.37135 101.837 7.45532C101.707 7.53529 101.544 7.61526 101.348 7.69524C101.156 7.77121 100.934 7.83519 100.681 7.88717C100.432 7.94315 100.159 7.97114 99.8612 7.97114C99.3473 7.97114 98.8823 7.88717 98.4663 7.71923C98.0544 7.55129 97.7016 7.30338 97.4079 6.97549C97.1183 6.64761 96.894 6.24376 96.7349 5.76393C96.5799 5.2801 96.5024 4.7243 96.5024 4.09653C96.5024 3.45276 96.5861 2.87897 96.7533 2.37515C96.9246 1.87133 97.1632 1.44548 97.4691 1.09761C97.775 0.745732 98.14 0.477828 98.5642 0.293894C98.9924 0.109961 99.4656 0.0179935 99.9835 0.0179935C100.212 0.0179935 100.434 0.0399857 100.65 0.0839699C100.867 0.123955 101.066 0.175937 101.25 0.239914C101.433 0.303891 101.597 0.377864 101.739 0.461834C101.882 0.545804 101.98 0.615779 102.033 0.671759C102.09 0.72374 102.127 0.763726 102.143 0.791716C102.159 0.819706 102.172 0.853693 102.18 0.893679C102.192 0.929666 102.2 0.97365 102.204 1.02563C102.213 1.07761 102.217 1.13959 102.217 1.21156C102.217 1.29154 102.213 1.35951 102.204 1.41549C102.196 1.47147 102.184 1.51945 102.168 1.55944C102.151 1.59543 102.131 1.62342 102.106 1.64341C102.086 1.6594 102.06 1.6674 102.027 1.6674C101.97 1.6674 101.89 1.62941 101.788 1.55344C101.686 1.47347 101.554 1.3875 101.391 1.29553C101.232 1.19957 101.036 1.1136 100.803 1.03763C100.575 0.957656 100.3 0.91767 99.9774 0.91767C99.6267 0.91767 99.3065 0.987645 99.0169 1.12759C98.7314 1.26355 98.4867 1.46547 98.2828 1.73338C98.0788 2.00128 97.9198 2.32916 97.8056 2.71702C97.6954 3.10089 97.6404 3.54073 97.6404 4.03655C97.6404 4.52837 97.6934 4.96422 97.7994 5.34408C97.9096 5.71995 98.0645 6.03583 98.2644 6.29174C98.4683 6.54365 98.7171 6.73558 99.0108 6.86753C99.3045 6.99549 99.6369 7.05946 100.008 7.05946C100.322 7.05946 100.595 7.02148 100.828 6.94551C101.064 6.86953 101.264 6.78556 101.427 6.6936C101.595 6.59763 101.731 6.51166 101.837 6.43569C101.943 6.35972 102.027 6.32173 102.088 6.32173C102.117 6.32173 102.141 6.32773 102.162 6.33972C102.182 6.35172 102.198 6.37571 102.21 6.4117C102.223 6.44369 102.231 6.48967 102.235 6.54965C102.243 6.60963 102.247 6.6856 102.247 6.77757Z" fill="white"/>
<path d="M106.169 4.85825V7.71923C106.169 7.75122 106.161 7.7792 106.144 7.8032C106.128 7.82719 106.099 7.84718 106.059 7.86317C106.018 7.87517 105.963 7.88517 105.893 7.89316C105.824 7.90516 105.74 7.91116 105.643 7.91116C105.541 7.91116 105.455 7.90516 105.386 7.89316C105.32 7.88517 105.265 7.87517 105.22 7.86317C105.18 7.84718 105.151 7.82719 105.135 7.8032C105.119 7.7792 105.11 7.75122 105.11 7.71923V4.85825L102.871 0.479828C102.826 0.387861 102.798 0.315886 102.786 0.263905C102.777 0.211924 102.788 0.171938 102.816 0.143948C102.849 0.115958 102.904 0.0979648 102.981 0.0899677C103.063 0.0819705 103.171 0.077972 103.306 0.077972C103.428 0.077972 103.526 0.0819705 103.599 0.0899677C103.677 0.0979648 103.738 0.109961 103.783 0.125955C103.828 0.13795 103.86 0.157943 103.881 0.185933C103.905 0.209925 103.928 0.241913 103.948 0.281899L105.043 2.5131C105.145 2.72502 105.247 2.94694 105.349 3.17886C105.451 3.41077 105.555 3.64469 105.661 3.88061H105.673C105.767 3.65269 105.863 3.42677 105.961 3.20285C106.063 2.97493 106.165 2.75101 106.267 2.53109L107.368 0.287897C107.38 0.247911 107.396 0.213923 107.417 0.185933C107.441 0.157943 107.472 0.13795 107.509 0.125955C107.549 0.109961 107.604 0.0979648 107.674 0.0899677C107.743 0.0819705 107.831 0.077972 107.937 0.077972C108.084 0.077972 108.198 0.0839698 108.279 0.0959655C108.365 0.103963 108.424 0.121956 108.457 0.149946C108.489 0.177936 108.5 0.217922 108.487 0.269903C108.479 0.321884 108.453 0.391859 108.408 0.479828L106.169 4.85825Z" fill="white"/>
<path d="M114.611 2.38714C114.611 2.775 114.546 3.12488 114.416 3.43677C114.285 3.74865 114.098 4.01456 113.853 4.23448C113.612 4.4544 113.314 4.62434 112.96 4.7443C112.609 4.86425 112.189 4.92423 111.699 4.92423H110.8V7.71923C110.8 7.75122 110.79 7.7792 110.769 7.8032C110.753 7.82719 110.725 7.84718 110.684 7.86317C110.647 7.87517 110.594 7.88517 110.525 7.89316C110.459 7.90516 110.376 7.91116 110.274 7.91116C110.172 7.91116 110.086 7.90516 110.017 7.89316C109.952 7.88517 109.899 7.87517 109.858 7.86317C109.817 7.84718 109.789 7.82719 109.772 7.8032C109.756 7.7792 109.748 7.75122 109.748 7.71923V0.5578C109.748 0.397857 109.791 0.283898 109.876 0.215922C109.962 0.147947 110.058 0.113959 110.164 0.113959H111.858C112.03 0.113959 112.193 0.121956 112.348 0.13795C112.507 0.149946 112.692 0.179935 112.905 0.227918C113.121 0.271902 113.339 0.357871 113.559 0.485826C113.784 0.609781 113.973 0.763726 114.128 0.94766C114.283 1.13159 114.401 1.34552 114.483 1.58943C114.569 1.82934 114.611 2.09525 114.611 2.38714ZM113.504 2.47111C113.504 2.15523 113.443 1.89132 113.321 1.6794C113.202 1.46747 113.053 1.30953 112.874 1.20557C112.699 1.1016 112.515 1.03563 112.323 1.00764C112.136 0.979648 111.952 0.965653 111.773 0.965653H110.8V4.07854H111.748C112.066 4.07854 112.329 4.03855 112.537 3.95858C112.75 3.87861 112.927 3.76865 113.07 3.6287C113.213 3.48475 113.321 3.31481 113.394 3.11888C113.467 2.91895 113.504 2.70303 113.504 2.47111Z" fill="white"/>
<path d="M124.828 7.71923C124.828 7.75122 124.82 7.7792 124.804 7.8032C124.788 7.82719 124.759 7.84718 124.718 7.86317C124.677 7.87517 124.624 7.88517 124.559 7.89316C124.498 7.90516 124.416 7.91116 124.314 7.91116C124.221 7.91116 124.139 7.90516 124.07 7.89316C124.005 7.88517 123.951 7.87517 123.911 7.86317C123.874 7.84718 123.847 7.82719 123.831 7.8032C123.815 7.7792 123.807 7.75122 123.807 7.71923V0.959655H123.794L120.974 7.74922C120.962 7.77721 120.944 7.8012 120.919 7.82119C120.899 7.84118 120.866 7.85918 120.821 7.87517C120.78 7.88717 120.729 7.89516 120.668 7.89916C120.611 7.90716 120.542 7.91116 120.46 7.91116C120.375 7.91116 120.301 7.90716 120.24 7.89916C120.179 7.89117 120.128 7.88117 120.087 7.86917C120.046 7.85318 120.014 7.83519 119.989 7.81519C119.969 7.7952 119.954 7.77321 119.946 7.74922L117.248 0.959655H117.242V7.71923C117.242 7.75122 117.234 7.7792 117.218 7.8032C117.201 7.82719 117.173 7.84718 117.132 7.86317C117.091 7.87517 117.038 7.88517 116.973 7.89316C116.908 7.90516 116.824 7.91116 116.722 7.91116C116.624 7.91116 116.543 7.90516 116.477 7.89316C116.412 7.88517 116.359 7.87517 116.318 7.86317C116.282 7.84718 116.255 7.82719 116.239 7.8032C116.227 7.7792 116.22 7.75122 116.22 7.71923V0.581791C116.22 0.413851 116.265 0.293894 116.355 0.22192C116.445 0.149946 116.545 0.113959 116.655 0.113959H117.291C117.422 0.113959 117.536 0.125955 117.634 0.149946C117.732 0.173938 117.817 0.211924 117.891 0.263905C117.964 0.315886 118.025 0.381863 118.074 0.461834C118.123 0.541805 118.166 0.635772 118.203 0.743733L120.497 6.36371H120.528L122.913 0.761726C122.958 0.641769 123.007 0.539806 123.06 0.455836C123.113 0.371866 123.17 0.30589 123.232 0.257907C123.297 0.205926 123.368 0.169939 123.446 0.149946C123.523 0.125955 123.613 0.113959 123.715 0.113959H124.382C124.443 0.113959 124.5 0.123955 124.553 0.143948C124.61 0.159943 124.657 0.187933 124.694 0.227918C124.735 0.263905 124.767 0.311888 124.792 0.371866C124.816 0.427846 124.828 0.497821 124.828 0.581791V7.71923Z" fill="white"/>
<path d="M132.641 7.71923C132.641 7.75122 132.633 7.7792 132.617 7.8032C132.6 7.82719 132.572 7.84718 132.531 7.86317C132.49 7.87517 132.435 7.88517 132.366 7.89316C132.3 7.90516 132.219 7.91116 132.121 7.91116C132.015 7.91116 131.929 7.90516 131.864 7.89316C131.799 7.88517 131.746 7.87517 131.705 7.86317C131.664 7.84718 131.636 7.82719 131.619 7.8032C131.603 7.7792 131.595 7.75122 131.595 7.71923V4.27646H127.991V7.71923C127.991 7.75122 127.983 7.7792 127.967 7.8032C127.951 7.82719 127.922 7.84718 127.881 7.86317C127.84 7.87517 127.785 7.88517 127.716 7.89316C127.651 7.90516 127.567 7.91116 127.465 7.91116C127.367 7.91116 127.284 7.90516 127.214 7.89316C127.145 7.88517 127.09 7.87517 127.049 7.86317C127.008 7.84718 126.98 7.82719 126.964 7.8032C126.947 7.7792 126.939 7.75122 126.939 7.71923V0.269903C126.939 0.237915 126.947 0.209925 126.964 0.185933C126.98 0.161942 127.008 0.143948 127.049 0.131953C127.09 0.115958 127.145 0.103963 127.214 0.0959655C127.284 0.0839698 127.367 0.077972 127.465 0.077972C127.567 0.077972 127.651 0.0839698 127.716 0.0959655C127.785 0.103963 127.84 0.115958 127.881 0.131953C127.922 0.143948 127.951 0.161942 127.967 0.185933C127.983 0.209925 127.991 0.237915 127.991 0.269903V3.37679H131.595V0.269903C131.595 0.237915 131.603 0.209925 131.619 0.185933C131.636 0.161942 131.664 0.143948 131.705 0.131953C131.746 0.115958 131.799 0.103963 131.864 0.0959655C131.929 0.0839698 132.015 0.077972 132.121 0.077972C132.219 0.077972 132.3 0.0839698 132.366 0.0959655C132.435 0.103963 132.49 0.115958 132.531 0.131953C132.572 0.143948 132.6 0.161942 132.617 0.185933C132.633 0.209925 132.641 0.237915 132.641 0.269903V7.71923Z" fill="white"/>
<path d="M138.997 5.69795C138.997 6.06182 138.928 6.38571 138.789 6.6696C138.655 6.9535 138.465 7.19542 138.221 7.39534C137.98 7.59127 137.694 7.73922 137.364 7.83918C137.038 7.93915 136.685 7.98913 136.306 7.98913C136.041 7.98913 135.794 7.96714 135.565 7.92315C135.341 7.87917 135.139 7.82519 134.96 7.76121C134.784 7.69724 134.635 7.63126 134.513 7.56328C134.395 7.49531 134.311 7.43733 134.262 7.38935C134.217 7.34136 134.183 7.28138 134.158 7.20941C134.138 7.13344 134.128 7.03347 134.128 6.90952C134.128 6.82155 134.132 6.74958 134.14 6.6936C134.148 6.63362 134.16 6.58563 134.177 6.54965C134.193 6.51366 134.213 6.48967 134.238 6.47767C134.262 6.46168 134.291 6.45368 134.323 6.45368C134.381 6.45368 134.46 6.48767 134.562 6.55565C134.668 6.62362 134.803 6.69759 134.966 6.77757C135.129 6.85754 135.325 6.93351 135.553 7.00548C135.786 7.07346 136.053 7.10745 136.355 7.10745C136.583 7.10745 136.791 7.07746 136.979 7.01748C137.17 6.9575 137.333 6.87353 137.468 6.76557C137.607 6.65361 137.713 6.51766 137.786 6.35772C137.86 6.19777 137.896 6.01584 137.896 5.81191C137.896 5.59199 137.845 5.40406 137.743 5.24812C137.641 5.09217 137.507 4.95622 137.34 4.84026C137.172 4.7203 136.981 4.61234 136.764 4.51638C136.552 4.41641 136.334 4.31645 136.11 4.21649C135.886 4.11252 135.667 3.99856 135.455 3.87461C135.243 3.75065 135.053 3.60471 134.886 3.43677C134.719 3.26883 134.582 3.0729 134.476 2.84898C134.374 2.62106 134.323 2.34916 134.323 2.03327C134.323 1.70939 134.383 1.42149 134.501 1.16958C134.623 0.913672 134.79 0.699749 135.002 0.52781C135.219 0.355872 135.474 0.225919 135.767 0.13795C136.065 0.0459835 136.385 0 136.728 0C136.903 0 137.079 0.0159943 137.254 0.0479828C137.433 0.0759727 137.601 0.115958 137.756 0.16794C137.915 0.215922 138.055 0.271902 138.178 0.335879C138.3 0.395858 138.38 0.44584 138.416 0.485826C138.457 0.521813 138.484 0.551802 138.496 0.575793C138.508 0.595786 138.518 0.623776 138.526 0.659763C138.535 0.691752 138.541 0.731737 138.545 0.77972C138.549 0.827703 138.551 0.88968 138.551 0.965653C138.551 1.03763 138.547 1.1016 138.539 1.15758C138.535 1.21356 138.526 1.26155 138.514 1.30153C138.502 1.33752 138.484 1.36551 138.459 1.3855C138.439 1.4015 138.414 1.40949 138.386 1.40949C138.341 1.40949 138.269 1.3815 138.172 1.32552C138.078 1.26954 137.962 1.20757 137.823 1.13959C137.684 1.06762 137.519 1.00364 137.327 0.94766C137.14 0.887681 136.928 0.857692 136.691 0.857692C136.471 0.857692 136.279 0.887681 136.116 0.94766C135.953 1.00364 135.818 1.07961 135.712 1.17558C135.606 1.27154 135.527 1.3855 135.474 1.51746C135.421 1.64941 135.394 1.78936 135.394 1.9373C135.394 2.15323 135.445 2.33916 135.547 2.4951C135.649 2.65105 135.784 2.789 135.951 2.90896C136.122 3.02891 136.316 3.13887 136.532 3.23884C136.748 3.3388 136.968 3.44076 137.193 3.54473C137.417 3.64469 137.637 3.75665 137.853 3.88061C138.07 4.00056 138.261 4.14451 138.429 4.31245C138.6 4.47639 138.736 4.67232 138.838 4.90024C138.944 5.12416 138.997 5.39006 138.997 5.69795Z" fill="white"/>
<path d="M108.413 34.1569C108.413 34.2572 108.377 34.3476 108.307 34.4279C108.246 34.5082 108.14 34.5734 107.989 34.6236C107.837 34.6738 107.636 34.7139 107.383 34.744C107.131 34.7742 106.813 34.7892 106.43 34.7892C106.036 34.7892 105.708 34.7742 105.446 34.744C105.193 34.7139 104.991 34.6738 104.84 34.6236C104.699 34.5734 104.593 34.5082 104.522 34.4279C104.462 34.3476 104.431 34.2572 104.431 34.1569V26.2825H97.1047V34.1569C97.1047 34.2572 97.0745 34.3476 97.0139 34.4279C96.9534 34.5082 96.8474 34.5734 96.696 34.6236C96.5447 34.6738 96.3428 34.7139 96.0905 34.744C95.8382 34.7742 95.5153 34.7892 95.1217 34.7892C94.7382 34.7892 94.4153 34.7742 94.1529 34.744C93.9006 34.7139 93.6988 34.6738 93.5474 34.6236C93.396 34.5734 93.285 34.5082 93.2144 34.4279C93.1538 34.3476 93.1235 34.2572 93.1235 34.1569V15.7583C93.1235 15.658 93.1538 15.5676 93.2144 15.4873C93.285 15.407 93.396 15.3418 93.5474 15.2916C93.6988 15.2414 93.9006 15.2013 94.1529 15.1711C94.4153 15.141 94.7382 15.126 95.1217 15.126C95.5153 15.126 95.8382 15.141 96.0905 15.1711C96.3428 15.2013 96.5447 15.2414 96.696 15.2916C96.8474 15.3418 96.9534 15.407 97.0139 15.4873C97.0745 15.5676 97.1047 15.658 97.1047 15.7583V22.91H104.431V15.7583C104.431 15.658 104.462 15.5676 104.522 15.4873C104.593 15.407 104.699 15.3418 104.84 15.2916C104.991 15.2414 105.193 15.2013 105.446 15.1711C105.708 15.141 106.036 15.126 106.43 15.126C106.813 15.126 107.131 15.141 107.383 15.1711C107.636 15.2013 107.837 15.2414 107.989 15.2916C108.14 15.3418 108.246 15.407 108.307 15.4873C108.377 15.5676 108.413 15.658 108.413 15.7583V34.1569Z" fill="white"/>
<path d="M7.40574 44.1605H8.10574V49.0605H7.40574V44.1605ZM4.59174 49.0605H3.89174V44.1605H4.59174V49.0605ZM7.46874 46.8765H4.52174V46.2675H7.46874V46.8765ZM11.1264 49.1025C10.7297 49.1025 10.3797 49.0209 10.0764 48.8575C9.77774 48.6942 9.5444 48.4702 9.3764 48.1855C9.21307 47.9009 9.1314 47.5742 9.1314 47.2055C9.1314 46.8369 9.21074 46.5102 9.3694 46.2255C9.53274 45.9409 9.7544 45.7192 10.0344 45.5605C10.3191 45.3972 10.6387 45.3155 10.9934 45.3155C11.3527 45.3155 11.6701 45.3949 11.9454 45.5535C12.2207 45.7122 12.4354 45.9362 12.5894 46.2255C12.7481 46.5102 12.8274 46.8439 12.8274 47.2265C12.8274 47.2545 12.8251 47.2872 12.8204 47.3245C12.8204 47.3619 12.8181 47.3969 12.8134 47.4295H9.6564V46.9465H12.4634L12.1904 47.1145C12.1951 46.8765 12.1461 46.6642 12.0434 46.4775C11.9407 46.2909 11.7984 46.1462 11.6164 46.0435C11.4391 45.9362 11.2314 45.8825 10.9934 45.8825C10.7601 45.8825 10.5524 45.9362 10.3704 46.0435C10.1884 46.1462 10.0461 46.2932 9.9434 46.4845C9.84074 46.6712 9.7894 46.8859 9.7894 47.1285V47.2405C9.7894 47.4879 9.8454 47.7095 9.9574 47.9055C10.0741 48.0969 10.2351 48.2462 10.4404 48.3535C10.6457 48.4609 10.8814 48.5145 11.1474 48.5145C11.3667 48.5145 11.5651 48.4772 11.7424 48.4025C11.9244 48.3279 12.0831 48.2159 12.2184 48.0665L12.5894 48.5005C12.4214 48.6965 12.2114 48.8459 11.9594 48.9485C11.7121 49.0512 11.4344 49.1025 11.1264 49.1025ZM13.7605 49.0605V45.3505H14.4045V46.3585L14.3415 46.1065C14.4442 45.8499 14.6169 45.6539 14.8595 45.5185C15.1022 45.3832 15.4009 45.3155 15.7555 45.3155V45.9665C15.7275 45.9619 15.6995 45.9595 15.6715 45.9595C15.6482 45.9595 15.6249 45.9595 15.6015 45.9595C15.2422 45.9595 14.9575 46.0669 14.7475 46.2815C14.5375 46.4962 14.4325 46.8065 14.4325 47.2125V49.0605H13.7605ZM18.0082 49.1025C17.6348 49.1025 17.3455 49.0022 17.1402 48.8015C16.9348 48.6009 16.8322 48.3139 16.8322 47.9405V44.5385H17.5042V47.9125C17.5042 48.1132 17.5532 48.2672 17.6512 48.3745C17.7538 48.4819 17.8985 48.5355 18.0852 48.5355C18.2952 48.5355 18.4702 48.4772 18.6102 48.3605L18.8202 48.8435C18.7175 48.9322 18.5938 48.9975 18.4492 49.0395C18.3092 49.0815 18.1622 49.1025 18.0082 49.1025ZM16.2022 45.9035V45.3505H18.5682V45.9035H16.2022ZM19.7306 49.0605V45.0215C19.7306 44.6575 19.8356 44.3682 20.0456 44.1535C20.2603 43.9342 20.5636 43.8245 20.9556 43.8245C21.1003 43.8245 21.2379 43.8432 21.3686 43.8805C21.5039 43.9132 21.6183 43.9669 21.7116 44.0415L21.5086 44.5525C21.4386 44.4965 21.3593 44.4545 21.2706 44.4265C21.1819 44.3939 21.0886 44.3775 20.9906 44.3775C20.7946 44.3775 20.6453 44.4335 20.5426 44.5455C20.4399 44.6529 20.3886 44.8139 20.3886 45.0285V45.5255L20.4026 45.8335V49.0605H19.7306ZM19.1006 45.9035V45.3505H21.4666V45.9035H19.1006ZM23.6347 49.1025C23.2614 49.1025 22.93 49.0209 22.6407 48.8575C22.3514 48.6942 22.1227 48.4702 21.9547 48.1855C21.7867 47.8962 21.7027 47.5695 21.7027 47.2055C21.7027 46.8369 21.7867 46.5102 21.9547 46.2255C22.1227 45.9409 22.3514 45.7192 22.6407 45.5605C22.93 45.3972 23.2614 45.3155 23.6347 45.3155C24.0034 45.3155 24.3324 45.3972 24.6217 45.5605C24.9157 45.7192 25.1444 45.9409 25.3077 46.2255C25.4757 46.5055 25.5597 46.8322 25.5597 47.2055C25.5597 47.5742 25.4757 47.9009 25.3077 48.1855C25.1444 48.4702 24.9157 48.6942 24.6217 48.8575C24.3324 49.0209 24.0034 49.1025 23.6347 49.1025ZM23.6347 48.5145C23.8727 48.5145 24.085 48.4609 24.2717 48.3535C24.463 48.2462 24.6124 48.0945 24.7197 47.8985C24.827 47.6979 24.8807 47.4669 24.8807 47.2055C24.8807 46.9395 24.827 46.7109 24.7197 46.5195C24.6124 46.3235 24.463 46.1719 24.2717 46.0645C24.085 45.9572 23.8727 45.9035 23.6347 45.9035C23.3967 45.9035 23.1844 45.9572 22.9977 46.0645C22.811 46.1719 22.6617 46.3235 22.5497 46.5195C22.4377 46.7109 22.3817 46.9395 22.3817 47.2055C22.3817 47.4669 22.4377 47.6979 22.5497 47.8985C22.6617 48.0945 22.811 48.2462 22.9977 48.3535C23.1844 48.4609 23.3967 48.5145 23.6347 48.5145ZM26.4891 49.0605V45.3505H27.1331V46.3585L27.0701 46.1065C27.1727 45.8499 27.3454 45.6539 27.5881 45.5185C27.8307 45.3832 28.1294 45.3155 28.4841 45.3155V45.9665C28.4561 45.9619 28.4281 45.9595 28.4001 45.9595C28.3767 45.9595 28.3534 45.9595 28.3301 45.9595C27.9707 45.9595 27.6861 46.0669 27.4761 46.2815C27.2661 46.4962 27.1611 46.8065 27.1611 47.2125V49.0605H26.4891ZM30.8111 49.1025C30.4518 49.1025 30.1298 49.0232 29.8451 48.8645C29.5651 48.7059 29.3434 48.4842 29.1801 48.1995C29.0168 47.9149 28.9351 47.5835 28.9351 47.2055C28.9351 46.8275 29.0168 46.4985 29.1801 46.2185C29.3434 45.9339 29.5651 45.7122 29.8451 45.5535C30.1298 45.3949 30.4518 45.3155 30.8111 45.3155C31.1238 45.3155 31.4061 45.3855 31.6581 45.5255C31.9101 45.6655 32.1108 45.8755 32.2601 46.1555C32.4141 46.4355 32.4911 46.7855 32.4911 47.2055C32.4911 47.6255 32.4164 47.9755 32.2671 48.2555C32.1224 48.5355 31.9241 48.7479 31.6721 48.8925C31.4201 49.0325 31.1331 49.1025 30.8111 49.1025ZM30.8671 48.5145C31.1004 48.5145 31.3104 48.4609 31.4971 48.3535C31.6884 48.2462 31.8378 48.0945 31.9451 47.8985C32.0571 47.6979 32.1131 47.4669 32.1131 47.2055C32.1131 46.9395 32.0571 46.7109 31.9451 46.5195C31.8378 46.3235 31.6884 46.1719 31.4971 46.0645C31.3104 45.9572 31.1004 45.9035 30.8671 45.9035C30.6291 45.9035 30.4168 45.9572 30.2301 46.0645C30.0434 46.1719 29.8941 46.3235 29.7821 46.5195C29.6701 46.7109 29.6141 46.9395 29.6141 47.2055C29.6141 47.4669 29.6701 47.6979 29.7821 47.8985C29.8941 48.0945 30.0434 48.2462 30.2301 48.3535C30.4168 48.4609 30.6291 48.5145 30.8671 48.5145ZM32.1341 49.0605V48.0595L32.1761 47.1985L32.1061 46.3375V43.8665H32.7781V49.0605H32.1341ZM35.1136 49.1025C34.8056 49.1025 34.5116 49.0605 34.2316 48.9765C33.9563 48.8925 33.7393 48.7899 33.5806 48.6685L33.8606 48.1365C34.0193 48.2439 34.2153 48.3349 34.4486 48.4095C34.6819 48.4842 34.9199 48.5215 35.1626 48.5215C35.4753 48.5215 35.6993 48.4772 35.8346 48.3885C35.9746 48.2999 36.0446 48.1762 36.0446 48.0175C36.0446 47.9009 36.0026 47.8099 35.9186 47.7445C35.8346 47.6792 35.7226 47.6302 35.5826 47.5975C35.4473 47.5649 35.2956 47.5369 35.1276 47.5135C34.9596 47.4855 34.7916 47.4529 34.6236 47.4155C34.4556 47.3735 34.3016 47.3175 34.1616 47.2475C34.0216 47.1729 33.9096 47.0725 33.8256 46.9465C33.7416 46.8159 33.6996 46.6432 33.6996 46.4285C33.6996 46.2045 33.7626 46.0085 33.8886 45.8405C34.0146 45.6725 34.1919 45.5442 34.4206 45.4555C34.6539 45.3622 34.9293 45.3155 35.2466 45.3155C35.4893 45.3155 35.7343 45.3459 35.9816 45.4065C36.2336 45.4625 36.4389 45.5442 36.5976 45.6515L36.3106 46.1835C36.1426 46.0715 35.9676 45.9945 35.7856 45.9525C35.6036 45.9105 35.4216 45.8895 35.2396 45.8895C34.9456 45.8895 34.7263 45.9385 34.5816 46.0365C34.4369 46.1299 34.3646 46.2512 34.3646 46.4005C34.3646 46.5265 34.4066 46.6245 34.4906 46.6945C34.5793 46.7599 34.6913 46.8112 34.8266 46.8485C34.9666 46.8859 35.1206 46.9185 35.2886 46.9465C35.4566 46.9699 35.6246 47.0025 35.7926 47.0445C35.9606 47.0819 36.1123 47.1355 36.2476 47.2055C36.3876 47.2755 36.4996 47.3735 36.5836 47.4995C36.6723 47.6255 36.7166 47.7935 36.7166 48.0035C36.7166 48.2275 36.6513 48.4212 36.5206 48.5845C36.3899 48.7479 36.2056 48.8762 35.9676 48.9695C35.7296 49.0582 35.4449 49.1025 35.1136 49.1025ZM39.5374 45.3155C39.8408 45.3155 40.1068 45.3739 40.3354 45.4905C40.5688 45.6072 40.7508 45.7845 40.8814 46.0225C41.0121 46.2605 41.0774 46.5615 41.0774 46.9255V49.0605H40.4054V47.0025C40.4054 46.6432 40.3168 46.3725 40.1394 46.1905C39.9668 46.0085 39.7218 45.9175 39.4044 45.9175C39.1664 45.9175 38.9588 45.9642 38.7814 46.0575C38.6041 46.1509 38.4664 46.2885 38.3684 46.4705C38.2751 46.6525 38.2284 46.8789 38.2284 47.1495V49.0605H37.5564V43.8665H38.2284V46.3515L38.0954 46.0855C38.2168 45.8429 38.4034 45.6539 38.6554 45.5185C38.9074 45.3832 39.2014 45.3155 39.5374 45.3155ZM42.3211 49.0605V45.3505H42.9931V49.0605H42.3211ZM42.6571 44.6365C42.5264 44.6365 42.4167 44.5945 42.3281 44.5105C42.2441 44.4265 42.2021 44.3239 42.2021 44.2025C42.2021 44.0765 42.2441 43.9715 42.3281 43.8875C42.4167 43.8035 42.5264 43.7615 42.6571 43.7615C42.7877 43.7615 42.8951 43.8035 42.9791 43.8875C43.0677 43.9669 43.1121 44.0672 43.1121 44.1885C43.1121 44.3145 43.0701 44.4219 42.9861 44.5105C42.9021 44.5945 42.7924 44.6365 42.6571 44.6365ZM44.2762 49.0605V45.3505H44.9202V46.3585L44.8572 46.1065C44.9598 45.8499 45.1325 45.6539 45.3752 45.5185C45.6178 45.3832 45.9165 45.3155 46.2712 45.3155V45.9665C46.2432 45.9619 46.2152 45.9595 46.1872 45.9595C46.1638 45.9595 46.1405 45.9595 46.1172 45.9595C45.7578 45.9595 45.4732 46.0669 45.2632 46.2815C45.0532 46.4962 44.9482 46.8065 44.9482 47.2125V49.0605H44.2762ZM48.7172 49.1025C48.3206 49.1025 47.9706 49.0209 47.6672 48.8575C47.3686 48.6942 47.1352 48.4702 46.9672 48.1855C46.8039 47.9009 46.7222 47.5742 46.7222 47.2055C46.7222 46.8369 46.8016 46.5102 46.9602 46.2255C47.1236 45.9409 47.3452 45.7192 47.6252 45.5605C47.9099 45.3972 48.2296 45.3155 48.5842 45.3155C48.9436 45.3155 49.2609 45.3949 49.5362 45.5535C49.8116 45.7122 50.0262 45.9362 50.1802 46.2255C50.3389 46.5102 50.4182 46.8439 50.4182 47.2265C50.4182 47.2545 50.4159 47.2872 50.4112 47.3245C50.4112 47.3619 50.4089 47.3969 50.4042 47.4295H47.2472V46.9465H50.0542L49.7812 47.1145C49.7859 46.8765 49.7369 46.6642 49.6342 46.4775C49.5316 46.2909 49.3892 46.1462 49.2072 46.0435C49.0299 45.9362 48.8222 45.8825 48.5842 45.8825C48.3509 45.8825 48.1432 45.9362 47.9612 46.0435C47.7792 46.1462 47.6369 46.2932 47.5342 46.4845C47.4316 46.6712 47.3802 46.8859 47.3802 47.1285V47.2405C47.3802 47.4879 47.4362 47.7095 47.5482 47.9055C47.6649 48.0969 47.8259 48.2462 48.0312 48.3535C48.2366 48.4609 48.4722 48.5145 48.7382 48.5145C48.9576 48.5145 49.1559 48.4772 49.3332 48.4025C49.5152 48.3279 49.6739 48.2159 49.8092 48.0665L50.1802 48.5005C50.0122 48.6965 49.8022 48.8459 49.5502 48.9485C49.3029 49.0512 49.0252 49.1025 48.7172 49.1025ZM51.0785 45.7775L51.4285 44.3565L51.5195 44.7625C51.3842 44.7625 51.2699 44.7205 51.1765 44.6365C51.0879 44.5525 51.0435 44.4405 51.0435 44.3005C51.0435 44.1559 51.0879 44.0415 51.1765 43.9575C51.2699 43.8689 51.3819 43.8245 51.5125 43.8245C51.6479 43.8245 51.7575 43.8712 51.8415 43.9645C51.9255 44.0532 51.9675 44.1652 51.9675 44.3005C51.9675 44.3425 51.9652 44.3869 51.9605 44.4335C51.9559 44.4755 51.9442 44.5245 51.9255 44.5805C51.9115 44.6365 51.8882 44.7089 51.8555 44.7975L51.5195 45.7775H51.0785ZM53.8782 49.1025C53.5702 49.1025 53.2762 49.0605 52.9962 48.9765C52.7209 48.8925 52.5039 48.7899 52.3452 48.6685L52.6252 48.1365C52.7839 48.2439 52.9799 48.3349 53.2132 48.4095C53.4466 48.4842 53.6846 48.5215 53.9272 48.5215C54.2399 48.5215 54.4639 48.4772 54.5992 48.3885C54.7392 48.2999 54.8092 48.1762 54.8092 48.0175C54.8092 47.9009 54.7672 47.8099 54.6832 47.7445C54.5992 47.6792 54.4872 47.6302 54.3472 47.5975C54.2119 47.5649 54.0602 47.5369 53.8922 47.5135C53.7242 47.4855 53.5562 47.4529 53.3882 47.4155C53.2202 47.3735 53.0662 47.3175 52.9262 47.2475C52.7862 47.1729 52.6742 47.0725 52.5902 46.9465C52.5062 46.8159 52.4642 46.6432 52.4642 46.4285C52.4642 46.2045 52.5272 46.0085 52.6532 45.8405C52.7792 45.6725 52.9566 45.5442 53.1852 45.4555C53.4186 45.3622 53.6939 45.3155 54.0112 45.3155C54.2539 45.3155 54.4989 45.3459 54.7462 45.4065C54.9982 45.4625 55.2036 45.5442 55.3622 45.6515L55.0752 46.1835C54.9072 46.0715 54.7322 45.9945 54.5502 45.9525C54.3682 45.9105 54.1862 45.8895 54.0042 45.8895C53.7102 45.8895 53.4909 45.9385 53.3462 46.0365C53.2016 46.1299 53.1292 46.2512 53.1292 46.4005C53.1292 46.5265 53.1712 46.6245 53.2552 46.6945C53.3439 46.7599 53.4559 46.8112 53.5912 46.8485C53.7312 46.8859 53.8852 46.9185 54.0532 46.9465C54.2212 46.9699 54.3892 47.0025 54.5572 47.0445C54.7252 47.0819 54.8769 47.1355 55.0122 47.2055C55.1522 47.2755 55.2642 47.3735 55.3482 47.4995C55.4369 47.6255 55.4812 47.7935 55.4812 48.0035C55.4812 48.2275 55.4159 48.4212 55.2852 48.5845C55.1546 48.7479 54.9702 48.8762 54.7322 48.9695C54.4942 49.0582 54.2096 49.1025 53.8782 49.1025ZM60.49 49.1165C60.1166 49.1165 59.7713 49.0559 59.454 48.9345C59.1413 48.8085 58.8683 48.6335 58.635 48.4095C58.4063 48.1809 58.2266 47.9149 58.096 47.6115C57.9653 47.3082 57.9 46.9745 57.9 46.6105C57.9 46.2465 57.9653 45.9129 58.096 45.6095C58.2266 45.3062 58.4086 45.0425 58.642 44.8185C58.8753 44.5899 59.1483 44.4149 59.461 44.2935C59.7783 44.1675 60.1236 44.1045 60.497 44.1045C60.875 44.1045 61.2226 44.1699 61.54 44.3005C61.862 44.4265 62.135 44.6155 62.359 44.8675L61.904 45.3085C61.7173 45.1125 61.5073 44.9679 61.274 44.8745C61.0406 44.7765 60.791 44.7275 60.525 44.7275C60.2496 44.7275 59.993 44.7742 59.755 44.8675C59.5216 44.9609 59.3186 45.0915 59.146 45.2595C58.9733 45.4275 58.838 45.6282 58.74 45.8615C58.6466 46.0902 58.6 46.3399 58.6 46.6105C58.6 46.8812 58.6466 47.1332 58.74 47.3665C58.838 47.5952 58.9733 47.7935 59.146 47.9615C59.3186 48.1295 59.5216 48.2602 59.755 48.3535C59.993 48.4469 60.2496 48.4935 60.525 48.4935C60.791 48.4935 61.0406 48.4469 61.274 48.3535C61.5073 48.2555 61.7173 48.1062 61.904 47.9055L62.359 48.3465C62.135 48.5985 61.862 48.7899 61.54 48.9205C61.2226 49.0512 60.8726 49.1165 60.49 49.1165ZM65.2406 45.3155C65.5439 45.3155 65.8099 45.3739 66.0386 45.4905C66.2719 45.6072 66.4539 45.7845 66.5846 46.0225C66.7152 46.2605 66.7806 46.5615 66.7806 46.9255V49.0605H66.1086V47.0025C66.1086 46.6432 66.0199 46.3725 65.8426 46.1905C65.6699 46.0085 65.4249 45.9175 65.1076 45.9175C64.8696 45.9175 64.6619 45.9642 64.4846 46.0575C64.3072 46.1509 64.1696 46.2885 64.0716 46.4705C63.9782 46.6525 63.9316 46.8789 63.9316 47.1495V49.0605H63.2596V43.8665H63.9316V46.3515L63.7986 46.0855C63.9199 45.8429 64.1066 45.6539 64.3586 45.5185C64.6106 45.3832 64.9046 45.3155 65.2406 45.3155ZM68.0242 49.0605V45.3505H68.6962V49.0605H68.0242ZM68.3602 44.6365C68.2295 44.6365 68.1199 44.5945 68.0312 44.5105C67.9472 44.4265 67.9052 44.3239 67.9052 44.2025C67.9052 44.0765 67.9472 43.9715 68.0312 43.8875C68.1199 43.8035 68.2295 43.7615 68.3602 43.7615C68.4909 43.7615 68.5982 43.8035 68.6822 43.8875C68.7709 43.9669 68.8152 44.0672 68.8152 44.1885C68.8152 44.3145 68.7732 44.4219 68.6892 44.5105C68.6052 44.5945 68.4955 44.6365 68.3602 44.6365ZM69.9793 49.0605V43.8665H70.6513V49.0605H69.9793ZM73.4674 49.1025C73.108 49.1025 72.786 49.0232 72.5014 48.8645C72.2214 48.7059 71.9997 48.4842 71.8364 48.1995C71.673 47.9149 71.5914 47.5835 71.5914 47.2055C71.5914 46.8275 71.673 46.4985 71.8364 46.2185C71.9997 45.9339 72.2214 45.7122 72.5014 45.5535C72.786 45.3949 73.108 45.3155 73.4674 45.3155C73.78 45.3155 74.0624 45.3855 74.3144 45.5255C74.5664 45.6655 74.767 45.8755 74.9164 46.1555C75.0704 46.4355 75.1474 46.7855 75.1474 47.2055C75.1474 47.6255 75.0727 47.9755 74.9234 48.2555C74.7787 48.5355 74.5804 48.7479 74.3284 48.8925C74.0764 49.0325 73.7894 49.1025 73.4674 49.1025ZM73.5234 48.5145C73.7567 48.5145 73.9667 48.4609 74.1534 48.3535C74.3447 48.2462 74.494 48.0945 74.6014 47.8985C74.7134 47.6979 74.7694 47.4669 74.7694 47.2055C74.7694 46.9395 74.7134 46.7109 74.6014 46.5195C74.494 46.3235 74.3447 46.1719 74.1534 46.0645C73.9667 45.9572 73.7567 45.9035 73.5234 45.9035C73.2854 45.9035 73.073 45.9572 72.8864 46.0645C72.6997 46.1719 72.5504 46.3235 72.4384 46.5195C72.3264 46.7109 72.2704 46.9395 72.2704 47.2055C72.2704 47.4669 72.3264 47.6979 72.4384 47.8985C72.5504 48.0945 72.6997 48.2462 72.8864 48.3535C73.073 48.4609 73.2854 48.5145 73.5234 48.5145ZM74.7904 49.0605V48.0595L74.8324 47.1985L74.7624 46.3375V43.8665H75.4344V49.0605H74.7904ZM76.7058 49.0605V45.3505H77.3498V46.3585L77.2868 46.1065C77.3895 45.8499 77.5622 45.6539 77.8048 45.5185C78.0475 45.3832 78.3462 45.3155 78.7008 45.3155V45.9665C78.6728 45.9619 78.6448 45.9595 78.6168 45.9595C78.5935 45.9595 78.5702 45.9595 78.5468 45.9595C78.1875 45.9595 77.9028 46.0669 77.6928 46.2815C77.4828 46.4962 77.3778 46.8065 77.3778 47.2125V49.0605H76.7058ZM81.1469 49.1025C80.7502 49.1025 80.4002 49.0209 80.0969 48.8575C79.7982 48.6942 79.5649 48.4702 79.3969 48.1855C79.2336 47.9009 79.1519 47.5742 79.1519 47.2055C79.1519 46.8369 79.2312 46.5102 79.3899 46.2255C79.5532 45.9409 79.7749 45.7192 80.0549 45.5605C80.3396 45.3972 80.6592 45.3155 81.0139 45.3155C81.3732 45.3155 81.6906 45.3949 81.9659 45.5535C82.2412 45.7122 82.4559 45.9362 82.6099 46.2255C82.7686 46.5102 82.8479 46.8439 82.8479 47.2265C82.8479 47.2545 82.8456 47.2872 82.8409 47.3245C82.8409 47.3619 82.8386 47.3969 82.8339 47.4295H79.6769V46.9465H82.4839L82.2109 47.1145C82.2156 46.8765 82.1666 46.6642 82.0639 46.4775C81.9612 46.2909 81.8189 46.1462 81.6369 46.0435C81.4596 45.9362 81.2519 45.8825 81.0139 45.8825C80.7806 45.8825 80.5729 45.9362 80.3909 46.0435C80.2089 46.1462 80.0666 46.2932 79.9639 46.4845C79.8612 46.6712 79.8099 46.8859 79.8099 47.1285V47.2405C79.8099 47.4879 79.8659 47.7095 79.9779 47.9055C80.0946 48.0969 80.2556 48.2462 80.4609 48.3535C80.6662 48.4609 80.9019 48.5145 81.1679 48.5145C81.3872 48.5145 81.5856 48.4772 81.7629 48.4025C81.9449 48.3279 82.1036 48.2159 82.2389 48.0665L82.6099 48.5005C82.4419 48.6965 82.2319 48.8459 81.9799 48.9485C81.7326 49.0512 81.4549 49.1025 81.1469 49.1025ZM85.762 45.3155C86.0654 45.3155 86.3314 45.3739 86.56 45.4905C86.7934 45.6072 86.9754 45.7845 87.106 46.0225C87.2367 46.2605 87.302 46.5615 87.302 46.9255V49.0605H86.63V47.0025C86.63 46.6432 86.5414 46.3725 86.364 46.1905C86.1914 46.0085 85.9464 45.9175 85.629 45.9175C85.391 45.9175 85.1834 45.9642 85.006 46.0575C84.8287 46.1509 84.691 46.2885 84.593 46.4705C84.4997 46.6525 84.453 46.8789 84.453 47.1495V49.0605H83.781V45.3505H84.425V46.3515L84.32 46.0855C84.4414 45.8429 84.628 45.6539 84.88 45.5185C85.132 45.3832 85.426 45.3155 85.762 45.3155ZM92.7286 49.0605V48.2765L92.6936 48.1295V46.7925C92.6936 46.5079 92.6096 46.2885 92.4416 46.1345C92.2782 45.9759 92.0309 45.8965 91.6996 45.8965C91.4802 45.8965 91.2656 45.9339 91.0556 46.0085C90.8456 46.0785 90.6682 46.1742 90.5236 46.2955L90.2436 45.7915C90.4349 45.6375 90.6636 45.5209 90.9296 45.4415C91.2002 45.3575 91.4826 45.3155 91.7766 45.3155C92.2852 45.3155 92.6772 45.4392 92.9526 45.6865C93.2279 45.9339 93.3656 46.3119 93.3656 46.8205V49.0605H92.7286ZM91.5106 49.1025C91.2352 49.1025 90.9926 49.0559 90.7826 48.9625C90.5772 48.8692 90.4186 48.7409 90.3066 48.5775C90.1946 48.4095 90.1386 48.2205 90.1386 48.0105C90.1386 47.8099 90.1852 47.6279 90.2786 47.4645C90.3766 47.3012 90.5329 47.1705 90.7476 47.0725C90.9669 46.9745 91.2609 46.9255 91.6296 46.9255H92.8056V47.4085H91.6576C91.3216 47.4085 91.0952 47.4645 90.9786 47.5765C90.8619 47.6885 90.8036 47.8239 90.8036 47.9825C90.8036 48.1645 90.8759 48.3115 91.0206 48.4235C91.1652 48.5309 91.3659 48.5845 91.6226 48.5845C91.8746 48.5845 92.0939 48.5285 92.2806 48.4165C92.4719 48.3045 92.6096 48.1412 92.6936 47.9265L92.8266 48.3885C92.7379 48.6079 92.5816 48.7829 92.3576 48.9135C92.1336 49.0395 91.8512 49.1025 91.5106 49.1025ZM96.5902 45.3155C96.8935 45.3155 97.1595 45.3739 97.3882 45.4905C97.6215 45.6072 97.8035 45.7845 97.9342 46.0225C98.0648 46.2605 98.1302 46.5615 98.1302 46.9255V49.0605H97.4582V47.0025C97.4582 46.6432 97.3695 46.3725 97.1922 46.1905C97.0195 46.0085 96.7745 45.9175 96.4572 45.9175C96.2192 45.9175 96.0115 45.9642 95.8342 46.0575C95.6568 46.1509 95.5192 46.2885 95.4212 46.4705C95.3278 46.6525 95.2812 46.8789 95.2812 47.1495V49.0605H94.6092V45.3505H95.2532V46.3515L95.1482 46.0855C95.2695 45.8429 95.4562 45.6539 95.7082 45.5185C95.9602 45.3832 96.2542 45.3155 96.5902 45.3155ZM100.907 49.1025C100.547 49.1025 100.225 49.0232 99.9408 48.8645C99.6608 48.7059 99.4391 48.4842 99.2758 48.1995C99.1125 47.9149 99.0308 47.5835 99.0308 47.2055C99.0308 46.8275 99.1125 46.4985 99.2758 46.2185C99.4391 45.9339 99.6608 45.7122 99.9408 45.5535C100.225 45.3949 100.547 45.3155 100.907 45.3155C101.219 45.3155 101.502 45.3855 101.754 45.5255C102.006 45.6655 102.206 45.8755 102.356 46.1555C102.51 46.4355 102.587 46.7855 102.587 47.2055C102.587 47.6255 102.512 47.9755 102.363 48.2555C102.218 48.5355 102.02 48.7479 101.768 48.8925C101.516 49.0325 101.229 49.1025 100.907 49.1025ZM100.963 48.5145C101.196 48.5145 101.406 48.4609 101.593 48.3535C101.784 48.2462 101.933 48.0945 102.041 47.8985C102.153 47.6979 102.209 47.4669 102.209 47.2055C102.209 46.9395 102.153 46.7109 102.041 46.5195C101.933 46.3235 101.784 46.1719 101.593 46.0645C101.406 45.9572 101.196 45.9035 100.963 45.9035C100.725 45.9035 100.512 45.9572 100.326 46.0645C100.139 46.1719 99.9898 46.3235 99.8778 46.5195C99.7658 46.7109 99.7098 46.9395 99.7098 47.2055C99.7098 47.4669 99.7658 47.6979 99.8778 47.8985C99.9898 48.0945 100.139 48.2462 100.326 48.3535C100.512 48.4609 100.725 48.5145 100.963 48.5145ZM102.23 49.0605V48.0595L102.272 47.1985L102.202 46.3375V43.8665H102.874V49.0605H102.23ZM107.306 49.0605V47.1845L107.467 47.6185L105.36 44.1605H106.109L107.88 47.0795H107.474L109.252 44.1605H109.945L107.845 47.6185L107.999 47.1845V49.0605H107.306ZM111.729 49.1025C111.356 49.1025 111.025 49.0209 110.735 48.8575C110.446 48.6942 110.217 48.4702 110.049 48.1855C109.881 47.8962 109.797 47.5695 109.797 47.2055C109.797 46.8369 109.881 46.5102 110.049 46.2255C110.217 45.9409 110.446 45.7192 110.735 45.5605C111.025 45.3972 111.356 45.3155 111.729 45.3155C112.098 45.3155 112.427 45.3972 112.716 45.5605C113.01 45.7192 113.239 45.9409 113.402 46.2255C113.57 46.5055 113.654 46.8322 113.654 47.2055C113.654 47.5742 113.57 47.9009 113.402 48.1855C113.239 48.4702 113.01 48.6942 112.716 48.8575C112.427 49.0209 112.098 49.1025 111.729 49.1025ZM111.729 48.5145C111.967 48.5145 112.18 48.4609 112.366 48.3535C112.558 48.2462 112.707 48.0945 112.814 47.8985C112.922 47.6979 112.975 47.4669 112.975 47.2055C112.975 46.9395 112.922 46.7109 112.814 46.5195C112.707 46.3235 112.558 46.1719 112.366 46.0645C112.18 45.9572 111.967 45.9035 111.729 45.9035C111.491 45.9035 111.279 45.9572 111.092 46.0645C110.906 46.1719 110.756 46.3235 110.644 46.5195C110.532 46.7109 110.476 46.9395 110.476 47.2055C110.476 47.4669 110.532 47.6979 110.644 47.8985C110.756 48.0945 110.906 48.2462 111.092 48.3535C111.279 48.4609 111.491 48.5145 111.729 48.5145ZM116.145 49.1025C115.827 49.1025 115.547 49.0442 115.305 48.9275C115.067 48.8109 114.88 48.6335 114.745 48.3955C114.614 48.1529 114.549 47.8495 114.549 47.4855V45.3505H115.221V47.4085C115.221 47.7725 115.307 48.0455 115.48 48.2275C115.657 48.4095 115.904 48.5005 116.222 48.5005C116.455 48.5005 116.658 48.4539 116.831 48.3605C117.003 48.2625 117.136 48.1225 117.23 47.9405C117.323 47.7539 117.37 47.5299 117.37 47.2685V45.3505H118.042V49.0605H117.405V48.0595L117.51 48.3255C117.388 48.5729 117.206 48.7642 116.964 48.8995C116.721 49.0349 116.448 49.1025 116.145 49.1025ZM121.302 45.3155C121.605 45.3155 121.871 45.3739 122.1 45.4905C122.333 45.6072 122.515 45.7845 122.646 46.0225C122.777 46.2605 122.842 46.5615 122.842 46.9255V49.0605H122.17V47.0025C122.17 46.6432 122.081 46.3725 121.904 46.1905C121.731 46.0085 121.486 45.9175 121.169 45.9175C120.931 45.9175 120.723 45.9642 120.546 46.0575C120.369 46.1509 120.231 46.2885 120.133 46.4705C120.04 46.6525 119.993 46.8789 119.993 47.1495V49.0605H119.321V45.3505H119.965V46.3515L119.86 46.0855C119.981 45.8429 120.168 45.6539 120.42 45.5185C120.672 45.3832 120.966 45.3155 121.302 45.3155ZM125.71 50.4605C125.369 50.4605 125.038 50.4115 124.716 50.3135C124.398 50.2202 124.139 50.0849 123.939 49.9075L124.261 49.3895C124.433 49.5389 124.646 49.6555 124.898 49.7395C125.15 49.8282 125.413 49.8725 125.689 49.8725C126.127 49.8725 126.449 49.7699 126.655 49.5645C126.86 49.3592 126.963 49.0465 126.963 48.6265V47.8425L127.033 47.1075L126.998 46.3655V45.3505H127.635V48.5565C127.635 49.2099 127.471 49.6905 127.145 49.9985C126.818 50.3065 126.34 50.4605 125.71 50.4605ZM125.626 48.9065C125.266 48.9065 124.944 48.8319 124.66 48.6825C124.38 48.5285 124.156 48.3162 123.988 48.0455C123.824 47.7749 123.743 47.4622 123.743 47.1075C123.743 46.7482 123.824 46.4355 123.988 46.1695C124.156 45.8989 124.38 45.6889 124.66 45.5395C124.944 45.3902 125.266 45.3155 125.626 45.3155C125.943 45.3155 126.232 45.3809 126.494 45.5115C126.755 45.6375 126.963 45.8335 127.117 46.0995C127.275 46.3655 127.355 46.7015 127.355 47.1075C127.355 47.5089 127.275 47.8425 127.117 48.1085C126.963 48.3745 126.755 48.5752 126.494 48.7105C126.232 48.8412 125.943 48.9065 125.626 48.9065ZM125.703 48.3185C125.95 48.3185 126.169 48.2672 126.361 48.1645C126.552 48.0619 126.701 47.9195 126.809 47.7375C126.921 47.5555 126.977 47.3455 126.977 47.1075C126.977 46.8695 126.921 46.6595 126.809 46.4775C126.701 46.2955 126.552 46.1555 126.361 46.0575C126.169 45.9549 125.95 45.9035 125.703 45.9035C125.455 45.9035 125.234 45.9549 125.038 46.0575C124.846 46.1555 124.695 46.2955 124.583 46.4775C124.475 46.6595 124.422 46.8695 124.422 47.1075C124.422 47.3455 124.475 47.5555 124.583 47.7375C124.695 47.9195 124.846 48.0619 125.038 48.1645C125.234 48.2672 125.455 48.3185 125.703 48.3185ZM130.897 49.0605V44.1605H132.808C133.237 44.1605 133.603 44.2282 133.907 44.3635C134.21 44.4989 134.443 44.6949 134.607 44.9515C134.77 45.2082 134.852 45.5139 134.852 45.8685C134.852 46.2232 134.77 46.5289 134.607 46.7855C134.443 47.0375 134.21 47.2335 133.907 47.3735C133.603 47.5089 133.237 47.5765 132.808 47.5765H131.282L131.597 47.2475V49.0605H130.897ZM131.597 47.3175L131.282 46.9675H132.787C133.235 46.9675 133.573 46.8719 133.802 46.6805C134.035 46.4892 134.152 46.2185 134.152 45.8685C134.152 45.5185 134.035 45.2479 133.802 45.0565C133.573 44.8652 133.235 44.7695 132.787 44.7695H131.282L131.597 44.4195V47.3175ZM137.42 49.1025C137.024 49.1025 136.674 49.0209 136.37 48.8575C136.072 48.6942 135.838 48.4702 135.67 48.1855C135.507 47.9009 135.425 47.5742 135.425 47.2055C135.425 46.8369 135.505 46.5102 135.663 46.2255C135.827 45.9409 136.048 45.7192 136.328 45.5605C136.613 45.3972 136.933 45.3155 137.287 45.3155C137.647 45.3155 137.964 45.3949 138.239 45.5535C138.515 45.7122 138.729 45.9362 138.883 46.2255C139.042 46.5102 139.121 46.8439 139.121 47.2265C139.121 47.2545 139.119 47.2872 139.114 47.3245C139.114 47.3619 139.112 47.3969 139.107 47.4295H135.95V46.9465H138.757L138.484 47.1145C138.489 46.8765 138.44 46.6642 138.337 46.4775C138.235 46.2909 138.092 46.1462 137.91 46.0435C137.733 45.9362 137.525 45.8825 137.287 45.8825C137.054 45.8825 136.846 45.9362 136.664 46.0435C136.482 46.1462 136.34 46.2932 136.237 46.4845C136.135 46.6712 136.083 46.8859 136.083 47.1285V47.2405C136.083 47.4879 136.139 47.7095 136.251 47.9055C136.368 48.0969 136.529 48.2462 136.734 48.3535C136.94 48.4609 137.175 48.5145 137.441 48.5145C137.661 48.5145 137.859 48.4772 138.036 48.4025C138.218 48.3279 138.377 48.2159 138.512 48.0665L138.883 48.5005C138.715 48.6965 138.505 48.8459 138.253 48.9485C138.006 49.0512 137.728 49.1025 137.42 49.1025ZM141.643 49.1025C141.27 49.1025 140.939 49.0209 140.649 48.8575C140.36 48.6942 140.131 48.4702 139.963 48.1855C139.795 47.8962 139.711 47.5695 139.711 47.2055C139.711 46.8369 139.795 46.5102 139.963 46.2255C140.131 45.9409 140.36 45.7192 140.649 45.5605C140.939 45.3972 141.27 45.3155 141.643 45.3155C142.012 45.3155 142.341 45.3972 142.63 45.5605C142.924 45.7192 143.153 45.9409 143.316 46.2255C143.484 46.5055 143.568 46.8322 143.568 47.2055C143.568 47.5742 143.484 47.9009 143.316 48.1855C143.153 48.4702 142.924 48.6942 142.63 48.8575C142.341 49.0209 142.012 49.1025 141.643 49.1025ZM141.643 48.5145C141.881 48.5145 142.094 48.4609 142.28 48.3535C142.472 48.2462 142.621 48.0945 142.728 47.8985C142.836 47.6979 142.889 47.4669 142.889 47.2055C142.889 46.9395 142.836 46.7109 142.728 46.5195C142.621 46.3235 142.472 46.1719 142.28 46.0645C142.094 45.9572 141.881 45.9035 141.643 45.9035C141.405 45.9035 141.193 45.9572 141.006 46.0645C140.82 46.1719 140.67 46.3235 140.558 46.5195C140.446 46.7109 140.39 46.9395 140.39 47.2055C140.39 47.4669 140.446 47.6979 140.558 47.8985C140.67 48.0945 140.82 48.2462 141.006 48.3535C141.193 48.4609 141.405 48.5145 141.643 48.5145ZM146.465 49.1025C146.157 49.1025 145.875 49.0325 145.618 48.8925C145.366 48.7479 145.163 48.5355 145.009 48.2555C144.86 47.9755 144.785 47.6255 144.785 47.2055C144.785 46.7855 144.857 46.4355 145.002 46.1555C145.151 45.8755 145.352 45.6655 145.604 45.5255C145.861 45.3855 146.148 45.3155 146.465 45.3155C146.829 45.3155 147.151 45.3949 147.431 45.5535C147.711 45.7122 147.933 45.9339 148.096 46.2185C148.259 46.4985 148.341 46.8275 148.341 47.2055C148.341 47.5835 148.259 47.9149 148.096 48.1995C147.933 48.4842 147.711 48.7059 147.431 48.8645C147.151 49.0232 146.829 49.1025 146.465 49.1025ZM144.498 50.4185V45.3505H145.142V46.3515L145.1 47.2125L145.17 48.0735V50.4185H144.498ZM146.409 48.5145C146.647 48.5145 146.859 48.4609 147.046 48.3535C147.237 48.2462 147.387 48.0945 147.494 47.8985C147.606 47.6979 147.662 47.4669 147.662 47.2055C147.662 46.9395 147.606 46.7109 147.494 46.5195C147.387 46.3235 147.237 46.1719 147.046 46.0645C146.859 45.9572 146.647 45.9035 146.409 45.9035C146.176 45.9035 145.963 45.9572 145.772 46.0645C145.585 46.1719 145.436 46.3235 145.324 46.5195C145.217 46.7109 145.163 46.9395 145.163 47.2055C145.163 47.4669 145.217 47.6979 145.324 47.8985C145.436 48.0945 145.585 48.2462 145.772 48.3535C145.963 48.4609 146.176 48.5145 146.409 48.5145ZM149.269 49.0605V43.8665H149.941V49.0605H149.269ZM152.876 49.1025C152.48 49.1025 152.13 49.0209 151.826 48.8575C151.528 48.6942 151.294 48.4702 151.126 48.1855C150.963 47.9009 150.881 47.5742 150.881 47.2055C150.881 46.8369 150.961 46.5102 151.119 46.2255C151.283 45.9409 151.504 45.7192 151.784 45.5605C152.069 45.3972 152.389 45.3155 152.743 45.3155C153.103 45.3155 153.42 45.3949 153.695 45.5535C153.971 45.7122 154.185 45.9362 154.339 46.2255C154.498 46.5102 154.577 46.8439 154.577 47.2265C154.577 47.2545 154.575 47.2872 154.57 47.3245C154.57 47.3619 154.568 47.3969 154.563 47.4295H151.406V46.9465H154.213L153.94 47.1145C153.945 46.8765 153.896 46.6642 153.793 46.4775C153.691 46.2909 153.548 46.1462 153.366 46.0435C153.189 45.9362 152.981 45.8825 152.743 45.8825C152.51 45.8825 152.302 45.9362 152.12 46.0435C151.938 46.1462 151.796 46.2932 151.693 46.4845C151.591 46.6712 151.539 46.8859 151.539 47.1285V47.2405C151.539 47.4879 151.595 47.7095 151.707 47.9055C151.824 48.0969 151.985 48.2462 152.19 48.3535C152.396 48.4609 152.631 48.5145 152.897 48.5145C153.117 48.5145 153.315 48.4772 153.492 48.4025C153.674 48.3279 153.833 48.2159 153.968 48.0665L154.339 48.5005C154.171 48.6965 153.961 48.8459 153.709 48.9485C153.462 49.0512 153.184 49.1025 152.876 49.1025ZM155.238 45.7775L155.588 44.3565L155.679 44.7625C155.543 44.7625 155.429 44.7205 155.336 44.6365C155.247 44.5525 155.203 44.4405 155.203 44.3005C155.203 44.1559 155.247 44.0415 155.336 43.9575C155.429 43.8689 155.541 43.8245 155.672 43.8245C155.807 43.8245 155.917 43.8712 156.001 43.9645C156.085 44.0532 156.127 44.1652 156.127 44.3005C156.127 44.3425 156.124 44.3869 156.12 44.4335C156.115 44.4755 156.103 44.5245 156.085 44.5805C156.071 44.6365 156.047 44.7089 156.015 44.7975L155.679 45.7775H155.238ZM158.037 49.1025C157.729 49.1025 157.435 49.0605 157.155 48.9765C156.88 48.8925 156.663 48.7899 156.504 48.6685L156.784 48.1365C156.943 48.2439 157.139 48.3349 157.372 48.4095C157.606 48.4842 157.844 48.5215 158.086 48.5215C158.399 48.5215 158.623 48.4772 158.758 48.3885C158.898 48.2999 158.968 48.1762 158.968 48.0175C158.968 47.9009 158.926 47.8099 158.842 47.7445C158.758 47.6792 158.646 47.6302 158.506 47.5975C158.371 47.5649 158.219 47.5369 158.051 47.5135C157.883 47.4855 157.715 47.4529 157.547 47.4155C157.379 47.3735 157.225 47.3175 157.085 47.2475C156.945 47.1729 156.833 47.0725 156.749 46.9465C156.665 46.8159 156.623 46.6432 156.623 46.4285C156.623 46.2045 156.686 46.0085 156.812 45.8405C156.938 45.6725 157.116 45.5442 157.344 45.4555C157.578 45.3622 157.853 45.3155 158.17 45.3155C158.413 45.3155 158.658 45.3459 158.905 45.4065C159.157 45.4625 159.363 45.5442 159.521 45.6515L159.234 46.1835C159.066 46.0715 158.891 45.9945 158.709 45.9525C158.527 45.9105 158.345 45.8895 158.163 45.8895C157.869 45.8895 157.65 45.9385 157.505 46.0365C157.361 46.1299 157.288 46.2512 157.288 46.4005C157.288 46.5265 157.33 46.6245 157.414 46.6945C157.503 46.7599 157.615 46.8112 157.75 46.8485C157.89 46.8859 158.044 46.9185 158.212 46.9465C158.38 46.9699 158.548 47.0025 158.716 47.0445C158.884 47.0819 159.036 47.1355 159.171 47.2055C159.311 47.2755 159.423 47.3735 159.507 47.4995C159.596 47.6255 159.64 47.7935 159.64 48.0035C159.64 48.2275 159.575 48.4212 159.444 48.5845C159.314 48.7479 159.129 48.8762 158.891 48.9695C158.653 49.0582 158.369 49.1025 158.037 49.1025ZM22.6188 59.0605V54.1605H23.1928L25.3908 57.8635H25.0828L27.2528 54.1605H27.8268L27.8338 59.0605H27.1618L27.1548 55.2175H27.3158L25.3838 58.4655H25.0618L23.1158 55.2175H23.2908V59.0605H22.6188ZM30.8583 59.1025C30.4617 59.1025 30.1117 59.0209 29.8083 58.8575C29.5097 58.6942 29.2763 58.4702 29.1083 58.1855C28.945 57.9009 28.8633 57.5742 28.8633 57.2055C28.8633 56.8369 28.9427 56.5102 29.1013 56.2255C29.2647 55.9409 29.4863 55.7192 29.7663 55.5605C30.051 55.3972 30.3707 55.3155 30.7253 55.3155C31.0847 55.3155 31.402 55.3949 31.6773 55.5535C31.9527 55.7122 32.1673 55.9362 32.3213 56.2255C32.48 56.5102 32.5593 56.8439 32.5593 57.2265C32.5593 57.2545 32.557 57.2872 32.5523 57.3245C32.5523 57.3619 32.55 57.3969 32.5453 57.4295H29.3883V56.9465H32.1953L31.9223 57.1145C31.927 56.8765 31.878 56.6642 31.7753 56.4775C31.6727 56.2909 31.5303 56.1462 31.3483 56.0435C31.171 55.9362 30.9633 55.8825 30.7253 55.8825C30.492 55.8825 30.2843 55.9362 30.1023 56.0435C29.9203 56.1462 29.778 56.2932 29.6753 56.4845C29.5727 56.6712 29.5213 56.8859 29.5213 57.1285V57.2405C29.5213 57.4879 29.5773 57.7095 29.6893 57.9055C29.806 58.0969 29.967 58.2462 30.1723 58.3535C30.3777 58.4609 30.6133 58.5145 30.8793 58.5145C31.0987 58.5145 31.297 58.4772 31.4743 58.4025C31.6563 58.3279 31.815 58.2159 31.9503 58.0665L32.3213 58.5005C32.1533 58.6965 31.9433 58.8459 31.6913 58.9485C31.444 59.0512 31.1663 59.1025 30.8583 59.1025ZM35.4735 55.3155C35.7768 55.3155 36.0428 55.3739 36.2715 55.4905C36.5048 55.6072 36.6868 55.7845 36.8175 56.0225C36.9481 56.2605 37.0135 56.5615 37.0135 56.9255V59.0605H36.3415V57.0025C36.3415 56.6432 36.2528 56.3725 36.0755 56.1905C35.9028 56.0085 35.6578 55.9175 35.3405 55.9175C35.1025 55.9175 34.8948 55.9642 34.7175 56.0575C34.5401 56.1509 34.4025 56.2885 34.3045 56.4705C34.2111 56.6525 34.1645 56.8789 34.1645 57.1495V59.0605H33.4925V55.3505H34.1365V56.3515L34.0315 56.0855C34.1528 55.8429 34.3395 55.6539 34.5915 55.5185C34.8435 55.3832 35.1375 55.3155 35.4735 55.3155ZM39.5311 59.1025C39.1578 59.1025 38.8685 59.0022 38.6631 58.8015C38.4578 58.6009 38.3551 58.3139 38.3551 57.9405V54.5385H39.0271V57.9125C39.0271 58.1132 39.0761 58.2672 39.1741 58.3745C39.2768 58.4819 39.4215 58.5355 39.6081 58.5355C39.8181 58.5355 39.9931 58.4772 40.1331 58.3605L40.3431 58.8435C40.2405 58.9322 40.1168 58.9975 39.9721 59.0395C39.8321 59.0815 39.6851 59.1025 39.5311 59.1025ZM37.7251 55.9035V55.3505H40.0911V55.9035H37.7251ZM43.4586 59.0605V58.2765L43.4236 58.1295V56.7925C43.4236 56.5079 43.3396 56.2885 43.1716 56.1345C43.0082 55.9759 42.7609 55.8965 42.4296 55.8965C42.2102 55.8965 41.9956 55.9339 41.7856 56.0085C41.5756 56.0785 41.3982 56.1742 41.2536 56.2955L40.9736 55.7915C41.1649 55.6375 41.3936 55.5209 41.6596 55.4415C41.9302 55.3575 42.2126 55.3155 42.5066 55.3155C43.0152 55.3155 43.4072 55.4392 43.6826 55.6865C43.9579 55.9339 44.0956 56.3119 44.0956 56.8205V59.0605H43.4586ZM42.2406 59.1025C41.9652 59.1025 41.7226 59.0559 41.5126 58.9625C41.3072 58.8692 41.1486 58.7409 41.0366 58.5775C40.9246 58.4095 40.8686 58.2205 40.8686 58.0105C40.8686 57.8099 40.9152 57.6279 41.0086 57.4645C41.1066 57.3012 41.2629 57.1705 41.4776 57.0725C41.6969 56.9745 41.9909 56.9255 42.3596 56.9255H43.5356V57.4085H42.3876C42.0516 57.4085 41.8252 57.4645 41.7086 57.5765C41.5919 57.6885 41.5336 57.8239 41.5336 57.9825C41.5336 58.1645 41.6059 58.3115 41.7506 58.4235C41.8952 58.5309 42.0959 58.5845 42.3526 58.5845C42.6046 58.5845 42.8239 58.5285 43.0106 58.4165C43.2019 58.3045 43.3396 58.1412 43.4236 57.9265L43.5566 58.3885C43.4679 58.6079 43.3116 58.7829 43.0876 58.9135C42.8636 59.0395 42.5812 59.1025 42.2406 59.1025ZM45.3391 59.0605V53.8665H46.0111V59.0605H45.3391ZM52.7861 54.1605H53.4861V59.0605H52.7861V54.1605ZM49.9721 59.0605H49.2721V54.1605H49.9721V59.0605ZM52.8491 56.8765H49.9021V56.2675H52.8491V56.8765ZM56.5068 59.1025C56.1101 59.1025 55.7601 59.0209 55.4568 58.8575C55.1581 58.6942 54.9248 58.4702 54.7568 58.1855C54.5934 57.9009 54.5118 57.5742 54.5118 57.2055C54.5118 56.8369 54.5911 56.5102 54.7498 56.2255C54.9131 55.9409 55.1348 55.7192 55.4148 55.5605C55.6994 55.3972 56.0191 55.3155 56.3738 55.3155C56.7331 55.3155 57.0504 55.3949 57.3258 55.5535C57.6011 55.7122 57.8158 55.9362 57.9698 56.2255C58.1284 56.5102 58.2078 56.8439 58.2078 57.2265C58.2078 57.2545 58.2054 57.2872 58.2008 57.3245C58.2008 57.3619 58.1984 57.3969 58.1938 57.4295H55.0368V56.9465H57.8438L57.5708 57.1145C57.5754 56.8765 57.5264 56.6642 57.4238 56.4775C57.3211 56.2909 57.1788 56.1462 56.9968 56.0435C56.8194 55.9362 56.6118 55.8825 56.3738 55.8825C56.1404 55.8825 55.9328 55.9362 55.7508 56.0435C55.5688 56.1462 55.4264 56.2932 55.3238 56.4845C55.2211 56.6712 55.1698 56.8859 55.1698 57.1285V57.2405C55.1698 57.4879 55.2258 57.7095 55.3378 57.9055C55.4544 58.0969 55.6154 58.2462 55.8208 58.3535C56.0261 58.4609 56.2618 58.5145 56.5278 58.5145C56.7471 58.5145 56.9454 58.4772 57.1228 58.4025C57.3048 58.3279 57.4634 58.2159 57.5988 58.0665L57.9698 58.5005C57.8018 58.6965 57.5918 58.8459 57.3398 58.9485C57.0924 59.0512 56.8148 59.1025 56.5068 59.1025ZM61.3414 59.0605V58.2765L61.3064 58.1295V56.7925C61.3064 56.5079 61.2224 56.2885 61.0544 56.1345C60.891 55.9759 60.6437 55.8965 60.3124 55.8965C60.093 55.8965 59.8784 55.9339 59.6684 56.0085C59.4584 56.0785 59.281 56.1742 59.1364 56.2955L58.8564 55.7915C59.0477 55.6375 59.2764 55.5209 59.5424 55.4415C59.813 55.3575 60.0954 55.3155 60.3894 55.3155C60.898 55.3155 61.29 55.4392 61.5654 55.6865C61.8407 55.9339 61.9784 56.3119 61.9784 56.8205V59.0605H61.3414ZM60.1234 59.1025C59.848 59.1025 59.6054 59.0559 59.3954 58.9625C59.19 58.8692 59.0314 58.7409 58.9194 58.5775C58.8074 58.4095 58.7514 58.2205 58.7514 58.0105C58.7514 57.8099 58.798 57.6279 58.8914 57.4645C58.9894 57.3012 59.1457 57.1705 59.3604 57.0725C59.5797 56.9745 59.8737 56.9255 60.2424 56.9255H61.4184V57.4085H60.2704C59.9344 57.4085 59.708 57.4645 59.5914 57.5765C59.4747 57.6885 59.4164 57.8239 59.4164 57.9825C59.4164 58.1645 59.4887 58.3115 59.6334 58.4235C59.778 58.5309 59.9787 58.5845 60.2354 58.5845C60.4874 58.5845 60.7067 58.5285 60.8934 58.4165C61.0847 58.3045 61.2224 58.1412 61.3064 57.9265L61.4394 58.3885C61.3507 58.6079 61.1944 58.7829 60.9704 58.9135C60.7464 59.0395 60.464 59.1025 60.1234 59.1025ZM63.222 59.0605V53.8665H63.894V59.0605H63.222ZM66.5467 59.1025C66.1734 59.1025 65.8841 59.0022 65.6787 58.8015C65.4734 58.6009 65.3707 58.3139 65.3707 57.9405V54.5385H66.0427V57.9125C66.0427 58.1132 66.0917 58.2672 66.1897 58.3745C66.2924 58.4819 66.4371 58.5355 66.6237 58.5355C66.8337 58.5355 67.0087 58.4772 67.1487 58.3605L67.3587 58.8435C67.2561 58.9322 67.1324 58.9975 66.9877 59.0395C66.8477 59.0815 66.7007 59.1025 66.5467 59.1025ZM64.7407 55.9035V55.3505H67.1067V55.9035H64.7407ZM70.1522 55.3155C70.4555 55.3155 70.7215 55.3739 70.9502 55.4905C71.1835 55.6072 71.3655 55.7845 71.4962 56.0225C71.6268 56.2605 71.6922 56.5615 71.6922 56.9255V59.0605H71.0202V57.0025C71.0202 56.6432 70.9315 56.3725 70.7542 56.1905C70.5815 56.0085 70.3365 55.9175 70.0192 55.9175C69.7812 55.9175 69.5735 55.9642 69.3962 56.0575C69.2188 56.1509 69.0812 56.2885 68.9832 56.4705C68.8898 56.6525 68.8432 56.8789 68.8432 57.1495V59.0605H68.1712V53.8665H68.8432V56.3515L68.7102 56.0855C68.8315 55.8429 69.0182 55.6539 69.2702 55.5185C69.5222 55.3832 69.8162 55.3155 70.1522 55.3155ZM76.3417 59.1165C75.9684 59.1165 75.6114 59.0605 75.2707 58.9485C74.93 58.8319 74.6617 58.6825 74.4657 58.5005L74.7247 57.9545C74.9114 58.1179 75.1494 58.2532 75.4387 58.3605C75.728 58.4679 76.029 58.5215 76.3417 58.5215C76.6264 58.5215 76.8574 58.4889 77.0347 58.4235C77.212 58.3582 77.3427 58.2695 77.4267 58.1575C77.5107 58.0409 77.5527 57.9102 77.5527 57.7655C77.5527 57.5975 77.4967 57.4622 77.3847 57.3595C77.2774 57.2569 77.135 57.1752 76.9577 57.1145C76.785 57.0492 76.5937 56.9932 76.3837 56.9465C76.1737 56.8999 75.9614 56.8462 75.7467 56.7855C75.5367 56.7202 75.343 56.6385 75.1657 56.5405C74.993 56.4425 74.853 56.3119 74.7457 56.1485C74.6384 55.9805 74.5847 55.7659 74.5847 55.5045C74.5847 55.2525 74.65 55.0215 74.7807 54.8115C74.916 54.5969 75.1214 54.4265 75.3967 54.3005C75.6767 54.1699 76.0314 54.1045 76.4607 54.1045C76.7454 54.1045 77.0277 54.1419 77.3077 54.2165C77.5877 54.2912 77.8304 54.3985 78.0357 54.5385L77.8047 55.0985C77.5947 54.9585 77.373 54.8582 77.1397 54.7975C76.9064 54.7322 76.68 54.6995 76.4607 54.6995C76.1854 54.6995 75.959 54.7345 75.7817 54.8045C75.6044 54.8745 75.4737 54.9679 75.3897 55.0845C75.3104 55.2012 75.2707 55.3319 75.2707 55.4765C75.2707 55.6492 75.3244 55.7869 75.4317 55.8895C75.5437 55.9922 75.686 56.0739 75.8587 56.1345C76.036 56.1952 76.2297 56.2512 76.4397 56.3025C76.6497 56.3492 76.8597 56.4029 77.0697 56.4635C77.2844 56.5242 77.478 56.6035 77.6507 56.7015C77.828 56.7995 77.9704 56.9302 78.0777 57.0935C78.185 57.2569 78.2387 57.4669 78.2387 57.7235C78.2387 57.9709 78.171 58.2019 78.0357 58.4165C77.9004 58.6265 77.6904 58.7969 77.4057 58.9275C77.1257 59.0535 76.771 59.1165 76.3417 59.1165ZM80.8154 59.1025C80.4187 59.1025 80.0687 59.0209 79.7654 58.8575C79.4667 58.6942 79.2334 58.4702 79.0654 58.1855C78.902 57.9009 78.8204 57.5742 78.8204 57.2055C78.8204 56.8369 78.8997 56.5102 79.0584 56.2255C79.2217 55.9409 79.4434 55.7192 79.7234 55.5605C80.008 55.3972 80.3277 55.3155 80.6824 55.3155C81.0417 55.3155 81.359 55.3949 81.6344 55.5535C81.9097 55.7122 82.1244 55.9362 82.2784 56.2255C82.437 56.5102 82.5164 56.8439 82.5164 57.2265C82.5164 57.2545 82.514 57.2872 82.5094 57.3245C82.5094 57.3619 82.507 57.3969 82.5024 57.4295H79.3454V56.9465H82.1524L81.8794 57.1145C81.884 56.8765 81.835 56.6642 81.7324 56.4775C81.6297 56.2909 81.4874 56.1462 81.3054 56.0435C81.128 55.9362 80.9204 55.8825 80.6824 55.8825C80.449 55.8825 80.2414 55.9362 80.0594 56.0435C79.8774 56.1462 79.735 56.2932 79.6324 56.4845C79.5297 56.6712 79.4784 56.8859 79.4784 57.1285V57.2405C79.4784 57.4879 79.5344 57.7095 79.6464 57.9055C79.763 58.0969 79.924 58.2462 80.1294 58.3535C80.3347 58.4609 80.5704 58.5145 80.8364 58.5145C81.0557 58.5145 81.254 58.4772 81.4314 58.4025C81.6134 58.3279 81.772 58.2159 81.9074 58.0665L82.2784 58.5005C82.1104 58.6965 81.9004 58.8459 81.6484 58.9485C81.401 59.0512 81.1234 59.1025 80.8154 59.1025ZM83.4495 59.0605V55.3505H84.0935V56.3585L84.0305 56.1065C84.1332 55.8499 84.3058 55.6539 84.5485 55.5185C84.7912 55.3832 85.0898 55.3155 85.4445 55.3155V55.9665C85.4165 55.9619 85.3885 55.9595 85.3605 55.9595C85.3372 55.9595 85.3138 55.9595 85.2905 55.9595C84.9312 55.9595 84.6465 56.0669 84.4365 56.2815C84.2265 56.4962 84.1215 56.8065 84.1215 57.2125V59.0605H83.4495ZM87.3961 59.0605L85.7721 55.3505H86.4721L87.9141 58.7105H87.5781L89.0481 55.3505H89.7061L88.0821 59.0605H87.3961ZM90.3333 59.0605V55.3505H91.0053V59.0605H90.3333ZM90.6693 54.6365C90.5386 54.6365 90.429 54.5945 90.3403 54.5105C90.2563 54.4265 90.2143 54.3239 90.2143 54.2025C90.2143 54.0765 90.2563 53.9715 90.3403 53.8875C90.429 53.8035 90.5386 53.7615 90.6693 53.7615C90.8 53.7615 90.9073 53.8035 90.9913 53.8875C91.08 53.9669 91.1243 54.0672 91.1243 54.1885C91.1243 54.3145 91.0823 54.4219 90.9983 54.5105C90.9143 54.5945 90.8046 54.6365 90.6693 54.6365ZM93.9054 59.1025C93.5274 59.1025 93.189 59.0209 92.8904 58.8575C92.5964 58.6942 92.3654 58.4702 92.1974 58.1855C92.0294 57.9009 91.9454 57.5742 91.9454 57.2055C91.9454 56.8369 92.0294 56.5102 92.1974 56.2255C92.3654 55.9409 92.5964 55.7192 92.8904 55.5605C93.189 55.3972 93.5274 55.3155 93.9054 55.3155C94.2414 55.3155 94.54 55.3832 94.8014 55.5185C95.0674 55.6492 95.2727 55.8452 95.4174 56.1065L94.9064 56.4355C94.785 56.2535 94.6357 56.1205 94.4584 56.0365C94.2857 55.9479 94.099 55.9035 93.8984 55.9035C93.6557 55.9035 93.4387 55.9572 93.2474 56.0645C93.056 56.1719 92.9044 56.3235 92.7924 56.5195C92.6804 56.7109 92.6244 56.9395 92.6244 57.2055C92.6244 57.4715 92.6804 57.7025 92.7924 57.8985C92.9044 58.0945 93.056 58.2462 93.2474 58.3535C93.4387 58.4609 93.6557 58.5145 93.8984 58.5145C94.099 58.5145 94.2857 58.4725 94.4584 58.3885C94.6357 58.2999 94.785 58.1645 94.9064 57.9825L95.4174 58.3045C95.2727 58.5612 95.0674 58.7595 94.8014 58.8995C94.54 59.0349 94.2414 59.1025 93.9054 59.1025ZM97.8847 59.1025C97.488 59.1025 97.138 59.0209 96.8347 58.8575C96.536 58.6942 96.3027 58.4702 96.1347 58.1855C95.9714 57.9009 95.8897 57.5742 95.8897 57.2055C95.8897 56.8369 95.969 56.5102 96.1277 56.2255C96.291 55.9409 96.5127 55.7192 96.7927 55.5605C97.0774 55.3972 97.397 55.3155 97.7517 55.3155C98.111 55.3155 98.4284 55.3949 98.7037 55.5535C98.979 55.7122 99.1937 55.9362 99.3477 56.2255C99.5064 56.5102 99.5857 56.8439 99.5857 57.2265C99.5857 57.2545 99.5834 57.2872 99.5787 57.3245C99.5787 57.3619 99.5764 57.3969 99.5717 57.4295H96.4147V56.9465H99.2217L98.9487 57.1145C98.9534 56.8765 98.9044 56.6642 98.8017 56.4775C98.699 56.2909 98.5567 56.1462 98.3747 56.0435C98.1974 55.9362 97.9897 55.8825 97.7517 55.8825C97.5184 55.8825 97.3107 55.9362 97.1287 56.0435C96.9467 56.1462 96.8044 56.2932 96.7017 56.4845C96.599 56.6712 96.5477 56.8859 96.5477 57.1285V57.2405C96.5477 57.4879 96.6037 57.7095 96.7157 57.9055C96.8324 58.0969 96.9934 58.2462 97.1987 58.3535C97.404 58.4609 97.6397 58.5145 97.9057 58.5145C98.125 58.5145 98.3234 58.4772 98.5007 58.4025C98.6827 58.3279 98.8414 58.2159 98.9767 58.0665L99.3477 58.5005C99.1797 58.6965 98.9697 58.8459 98.7177 58.9485C98.4704 59.0512 98.1927 59.1025 97.8847 59.1025ZM101.583 59.1025C101.275 59.1025 100.981 59.0605 100.701 58.9765C100.426 58.8925 100.209 58.7899 100.05 58.6685L100.33 58.1365C100.489 58.2439 100.685 58.3349 100.918 58.4095C101.151 58.4842 101.389 58.5215 101.632 58.5215C101.945 58.5215 102.169 58.4772 102.304 58.3885C102.444 58.2999 102.514 58.1762 102.514 58.0175C102.514 57.9009 102.472 57.8099 102.388 57.7445C102.304 57.6792 102.192 57.6302 102.052 57.5975C101.917 57.5649 101.765 57.5369 101.597 57.5135C101.429 57.4855 101.261 57.4529 101.093 57.4155C100.925 57.3735 100.771 57.3175 100.631 57.2475C100.491 57.1729 100.379 57.0725 100.295 56.9465C100.211 56.8159 100.169 56.6432 100.169 56.4285C100.169 56.2045 100.232 56.0085 100.358 55.8405C100.484 55.6725 100.661 55.5442 100.89 55.4555C101.123 55.3622 101.399 55.3155 101.716 55.3155C101.959 55.3155 102.204 55.3459 102.451 55.4065C102.703 55.4625 102.908 55.5442 103.067 55.6515L102.78 56.1835C102.612 56.0715 102.437 55.9945 102.255 55.9525C102.073 55.9105 101.891 55.8895 101.709 55.8895C101.415 55.8895 101.196 55.9385 101.051 56.0365C100.906 56.1299 100.834 56.2512 100.834 56.4005C100.834 56.5265 100.876 56.6245 100.96 56.6945C101.049 56.7599 101.161 56.8112 101.296 56.8485C101.436 56.8859 101.59 56.9185 101.758 56.9465C101.926 56.9699 102.094 57.0025 102.262 57.0445C102.43 57.0819 102.582 57.1355 102.717 57.2055C102.857 57.2755 102.969 57.3735 103.053 57.4995C103.142 57.6255 103.186 57.7935 103.186 58.0035C103.186 58.2275 103.121 58.4212 102.99 58.5845C102.859 58.7479 102.675 58.8762 102.437 58.9695C102.199 59.0582 101.914 59.1025 101.583 59.1025ZM106.767 60.4185C106.501 59.9939 106.295 59.5039 106.151 58.9485C106.006 58.3885 105.934 57.7865 105.934 57.1425C105.934 56.4985 106.006 55.8965 106.151 55.3365C106.295 54.7719 106.501 54.2819 106.767 53.8665H107.404C107.124 54.3612 106.918 54.8792 106.788 55.4205C106.657 55.9572 106.592 56.5312 106.592 57.1425C106.592 57.7539 106.657 58.3302 106.788 58.8715C106.918 59.4082 107.124 59.9239 107.404 60.4185H106.767ZM110.553 59.1165C110.18 59.1165 109.834 59.0559 109.517 58.9345C109.204 58.8085 108.931 58.6335 108.698 58.4095C108.469 58.1809 108.29 57.9149 108.159 57.6115C108.028 57.3082 107.963 56.9745 107.963 56.6105C107.963 56.2465 108.028 55.9129 108.159 55.6095C108.29 55.3062 108.472 55.0425 108.705 54.8185C108.938 54.5899 109.211 54.4149 109.524 54.2935C109.841 54.1675 110.187 54.1045 110.56 54.1045C110.938 54.1045 111.286 54.1699 111.603 54.3005C111.925 54.4265 112.198 54.6155 112.422 54.8675L111.967 55.3085C111.78 55.1125 111.57 54.9679 111.337 54.8745C111.104 54.7765 110.854 54.7275 110.588 54.7275C110.313 54.7275 110.056 54.7742 109.818 54.8675C109.585 54.9609 109.382 55.0915 109.209 55.2595C109.036 55.4275 108.901 55.6282 108.803 55.8615C108.71 56.0902 108.663 56.3399 108.663 56.6105C108.663 56.8812 108.71 57.1332 108.803 57.3665C108.901 57.5952 109.036 57.7935 109.209 57.9615C109.382 58.1295 109.585 58.2602 109.818 58.3535C110.056 58.4469 110.313 58.4935 110.588 58.4935C110.854 58.4935 111.104 58.4469 111.337 58.3535C111.57 58.2555 111.78 58.1062 111.967 57.9055L112.422 58.3465C112.198 58.5985 111.925 58.7899 111.603 58.9205C111.286 59.0512 110.936 59.1165 110.553 59.1165ZM114.522 59.0605V57.1845L114.683 57.6185L112.576 54.1605H113.325L115.096 57.0795H114.69L116.468 54.1605H117.161L115.061 57.6185L115.215 57.1845V59.0605H114.522ZM117.789 59.0605V54.1605H119.7C120.129 54.1605 120.495 54.2282 120.799 54.3635C121.102 54.4989 121.335 54.6949 121.499 54.9515C121.662 55.2082 121.744 55.5139 121.744 55.8685C121.744 56.2232 121.662 56.5289 121.499 56.7855C121.335 57.0375 121.102 57.2335 120.799 57.3735C120.495 57.5089 120.129 57.5765 119.7 57.5765H118.174L118.489 57.2475V59.0605H117.789ZM118.489 57.3175L118.174 56.9675H119.679C120.127 56.9675 120.465 56.8719 120.694 56.6805C120.927 56.4892 121.044 56.2185 121.044 55.8685C121.044 55.5185 120.927 55.2479 120.694 55.0565C120.465 54.8652 120.127 54.7695 119.679 54.7695H118.174L118.489 54.4195V57.3175ZM122.772 59.0605V54.1605H123.346L125.544 57.8635H125.236L127.406 54.1605H127.98L127.987 59.0605H127.315L127.308 55.2175H127.469L125.537 58.4655H125.215L123.269 55.2175H123.444V59.0605H122.772ZM132.972 54.1605H133.672V59.0605H132.972V54.1605ZM130.158 59.0605H129.458V54.1605H130.158V59.0605ZM133.035 56.8765H130.088V56.2675H133.035V56.8765ZM136.566 59.1165C136.193 59.1165 135.836 59.0605 135.495 58.9485C135.155 58.8319 134.886 58.6825 134.69 58.5005L134.949 57.9545C135.136 58.1179 135.374 58.2532 135.663 58.3605C135.953 58.4679 136.254 58.5215 136.566 58.5215C136.851 58.5215 137.082 58.4889 137.259 58.4235C137.437 58.3582 137.567 58.2695 137.651 58.1575C137.735 58.0409 137.777 57.9102 137.777 57.7655C137.777 57.5975 137.721 57.4622 137.609 57.3595C137.502 57.2569 137.36 57.1752 137.182 57.1145C137.01 57.0492 136.818 56.9932 136.608 56.9465C136.398 56.8999 136.186 56.8462 135.971 56.7855C135.761 56.7202 135.568 56.6385 135.39 56.5405C135.218 56.4425 135.078 56.3119 134.97 56.1485C134.863 55.9805 134.809 55.7659 134.809 55.5045C134.809 55.2525 134.875 55.0215 135.005 54.8115C135.141 54.5969 135.346 54.4265 135.621 54.3005C135.901 54.1699 136.256 54.1045 136.685 54.1045C136.97 54.1045 137.252 54.1419 137.532 54.2165C137.812 54.2912 138.055 54.3985 138.26 54.5385L138.029 55.0985C137.819 54.9585 137.598 54.8582 137.364 54.7975C137.131 54.7322 136.905 54.6995 136.685 54.6995C136.41 54.6995 136.184 54.7345 136.006 54.8045C135.829 54.8745 135.698 54.9679 135.614 55.0845C135.535 55.2012 135.495 55.3319 135.495 55.4765C135.495 55.6492 135.549 55.7869 135.656 55.8895C135.768 55.9922 135.911 56.0739 136.083 56.1345C136.261 56.1952 136.454 56.2512 136.664 56.3025C136.874 56.3492 137.084 56.4029 137.294 56.4635C137.509 56.5242 137.703 56.6035 137.875 56.7015C138.053 56.7995 138.195 56.9302 138.302 57.0935C138.41 57.2569 138.463 57.4669 138.463 57.7235C138.463 57.9709 138.396 58.2019 138.26 58.4165C138.125 58.6265 137.915 58.7969 137.63 58.9275C137.35 59.0535 136.996 59.1165 136.566 59.1165ZM139.612 60.4185H138.975C139.26 59.9239 139.467 59.4082 139.598 58.8715C139.729 58.3302 139.794 57.7539 139.794 57.1425C139.794 56.5312 139.729 55.9572 139.598 55.4205C139.467 54.8792 139.26 54.3612 138.975 53.8665H139.612C139.887 54.2819 140.095 54.7719 140.235 55.3365C140.38 55.8965 140.452 56.4985 140.452 57.1425C140.452 57.7865 140.38 58.3885 140.235 58.9485C140.095 59.5039 139.887 59.9939 139.612 60.4185Z" fill="white"/>
</svg>
