<svg width="48" height="48" viewBox="0 0 48 48" fill="none" xmlns="http://www.w3.org/2000/svg">
<circle cx="24" cy="24" r="24" fill="#F2E9F2"/>
<path d="M15.5024 16.9775C14.8888 16.9775 14.4004 17.4669 14.4004 18.0804V33.9007C14.4004 34.5152 14.8888 35.0073 15.5024 35.0073H27.2762C27.2808 35.0063 27.2854 35.0063 27.29 35.0073C27.8888 35.0275 28.3828 34.5152 28.3828 33.9007V31.7842L27.9532 32.5265C27.9164 32.5909 27.8612 32.6414 27.795 32.6736L25.419 33.8501C25.3086 33.9053 25.1771 33.9016 25.0704 33.8391C24.9637 33.7774 24.8947 33.6661 24.8874 33.5429L24.7181 30.8947C24.7126 30.823 24.7291 30.7512 24.7641 30.6877L28.3827 24.4229V18.0805C28.3827 17.467 27.8906 16.9777 27.2761 16.9777H25.4383V18.0805C25.4383 18.179 25.3997 18.2728 25.3307 18.3418C25.2608 18.4117 25.1669 18.4503 25.0685 18.4503H17.7108C17.5075 18.4494 17.3438 18.2838 17.3447 18.0805V16.9777L15.5024 16.9775ZM16.7303 19.9182H18.6914C19.1605 19.9182 19.5496 20.3073 19.5496 20.7773V22.7402C19.5496 23.2102 19.1605 23.5993 18.6914 23.5993H16.7303C16.2612 23.5993 15.8721 23.2102 15.8721 22.7402V20.7773C15.8721 20.3073 16.2612 19.9182 16.7303 19.9182ZM16.7303 20.655C16.6586 20.655 16.6089 20.7055 16.6089 20.7773V22.7402C16.6089 22.8129 16.6586 22.8625 16.7303 22.8625H18.6914C18.7631 22.8625 18.8128 22.8129 18.8128 22.7402V20.7773C18.8128 20.7055 18.7631 20.655 18.6914 20.655H16.7303ZM21.5722 21.3908H26.3552C26.4536 21.3908 26.5475 21.4295 26.6174 21.4984C26.6863 21.5684 26.725 21.6622 26.725 21.7606C26.725 21.8581 26.6854 21.951 26.6164 22.02C26.5465 22.089 26.4536 22.1276 26.3552 22.1267H21.5722C21.3707 22.1258 21.207 21.9621 21.2061 21.7606C21.2061 21.6631 21.2438 21.5693 21.3128 21.4994C21.3818 21.4304 21.4747 21.3917 21.5722 21.3908ZM16.7303 24.3352H18.4467C18.6491 24.3361 18.8128 24.4999 18.8128 24.7013C18.8137 24.7997 18.7751 24.8927 18.7061 24.9626C18.6381 25.0316 18.5442 25.0711 18.4467 25.0711H16.7303C16.6586 25.0711 16.6089 25.1208 16.6089 25.1934V27.1573C16.6089 27.229 16.6586 27.2796 16.7303 27.2796H18.6914C18.7631 27.2796 18.8128 27.229 18.8128 27.1573V26.9098C18.8137 26.8123 18.8524 26.7185 18.9223 26.6504C18.9913 26.5814 19.086 26.5428 19.1835 26.5437C19.3849 26.5447 19.5487 26.7084 19.5496 26.9098V27.1573C19.5496 27.6273 19.1605 28.0155 18.6914 28.0155H16.7303C16.2612 28.0155 15.8721 27.6273 15.8721 27.1573V25.1934C15.8721 24.7234 16.2612 24.3352 16.7303 24.3352ZM19.9194 24.3352C20.0169 24.3352 20.1107 24.3739 20.1797 24.4438C20.3232 24.5873 20.3232 24.8191 20.1797 24.9626L18.3382 26.8041C18.1947 26.9466 17.9629 26.9466 17.8194 26.8041L17.0836 26.0682C17.0146 25.9992 16.975 25.9054 16.975 25.8069C16.975 25.7094 17.0146 25.6156 17.0836 25.5466C17.227 25.4041 17.4589 25.4041 17.6023 25.5466L18.0806 26.0249L19.6581 24.4437C19.7271 24.3738 19.821 24.3352 19.9194 24.3352ZM21.5723 25.8079H26.3553C26.4537 25.807 26.5466 25.8456 26.6166 25.9146C26.6855 25.9836 26.7251 26.0765 26.7251 26.174C26.7251 26.2724 26.6865 26.3662 26.6175 26.4361C26.5476 26.5051 26.4538 26.5438 26.3553 26.5438H21.5723C21.4748 26.5428 21.3819 26.5042 21.3129 26.4352C21.2439 26.3653 21.2062 26.2715 21.2062 26.174C21.2071 25.9725 21.3709 25.8088 21.5723 25.8079ZM16.7304 28.7523H18.6915C19.1606 28.7523 19.5497 29.1404 19.5497 29.6096V31.5706C19.5497 32.0407 19.1606 32.4288 18.6915 32.4288H16.7304C16.2613 32.4288 15.8722 32.0407 15.8722 31.5706V29.6096C15.8722 29.1404 16.2613 28.7523 16.7304 28.7523ZM16.7304 29.4881C16.6587 29.4881 16.609 29.5378 16.609 29.6096V31.5706C16.609 31.6433 16.6587 31.693 16.7304 31.693H18.6915C18.7633 31.693 18.8129 31.6433 18.8129 31.5706V29.6096C18.8129 29.5378 18.7633 29.4881 18.6915 29.4881H16.7304ZM21.5723 30.2203H23.9657C24.0632 30.2213 24.157 30.2599 24.2251 30.3298C24.2941 30.3988 24.3327 30.4926 24.3318 30.5901C24.3318 30.7925 24.1681 30.9562 23.9657 30.9562H21.5723C21.3709 30.9562 21.2071 30.7925 21.2062 30.5901C21.2062 30.4926 21.2439 30.3988 21.3129 30.3298C21.3819 30.2599 21.4748 30.2213 21.5723 30.2203Z" fill="#A239AB"/>
<path d="M30.3684 22.4512L32.2805 23.5557L27.371 32.0611L25.5868 32.9431L25.459 30.9584L30.3684 22.4512Z" fill="#A239AB"/>
<path d="M32.4558 19.9883C32.6333 19.9929 32.8135 20.0416 32.98 20.1382C33.5116 20.4454 33.6918 21.1131 33.3847 21.6447L32.6489 22.9184L30.7378 21.8157L31.4726 20.5429C31.6832 20.1777 32.0658 19.9782 32.4567 19.9892L32.4558 19.9883Z" fill="#A239AB"/>
<path d="M21.3909 14.3994C21.8268 14.3994 22.0816 14.5916 22.26 14.897C22.2646 14.9034 22.2692 14.9099 22.2738 14.9163L22.5561 15.3394C22.6242 15.4433 22.7392 15.5058 22.8633 15.5058H24.3321C24.5399 15.5058 24.7018 15.6649 24.7018 15.8719V17.7131L18.0771 17.714V15.8728C18.0771 15.6649 18.239 15.5067 18.4469 15.5067L19.9193 15.5058C20.0425 15.5058 20.1584 15.4433 20.2256 15.3394L20.5079 14.9163C20.7507 14.5521 20.9485 14.3994 21.3909 14.3994Z" fill="#A239AB"/>
</svg>
