<svg width="48" height="48" viewBox="0 0 48 48" fill="none" xmlns="http://www.w3.org/2000/svg">
<circle cx="24" cy="24" r="24" fill="#924793" fill-opacity="0.12"/>
<path fill-rule="evenodd" clip-rule="evenodd" d="M20.04 19.1059C20.0135 19.1191 19.9943 19.1263 20.0232 19.1202C20.0352 19.1181 20.04 19.113 20.04 19.1059ZM27.156 19.0732C27.1801 19.0772 27.1692 19.0456 27.162 18.973C27.1463 19.0323 27.1222 19.067 27.156 19.0732ZM27.3488 17.8318C27.3488 17.8277 27.35 17.8236 27.3512 17.8195C27.456 17.1575 27.5139 16.3575 27.3512 15.7261C27.2837 15.4604 27.1764 15.2264 27.0186 15.0487C26.8667 14.8781 26.6643 14.7585 26.3992 14.7125C26.2522 14.687 26.0859 14.6839 25.8955 14.7064C25.969 14.8259 26.022 14.9516 26.0581 15.0773C26.1341 15.3399 26.1365 15.6065 26.0955 15.8385C26.0376 16.1562 25.8906 16.4167 25.7231 16.5302C25.7436 16.6364 25.8183 16.7999 25.9822 17.0083C26.1329 17.2004 26.3558 17.4241 26.6776 17.6704C26.9873 17.9074 27.0945 18.4438 27.1608 18.8085C27.1644 18.7605 27.1728 18.7064 27.1873 18.6451C27.2391 18.4274 27.2982 18.1454 27.3488 17.8318ZM19.8725 17.7582C19.8677 17.5835 19.8713 17.3894 19.8737 17.1473C19.8761 16.947 19.8798 16.7151 19.8798 16.4321C19.8798 16.0326 19.7978 15.8936 19.6785 15.8936C19.7231 15.7567 19.7677 15.6188 19.8026 15.5043C19.9521 15.018 20.2063 14.6829 20.7257 14.453C21.2644 14.2139 22.0911 14.0821 23.3733 14.0096C24.3916 13.9514 25.0243 14.1639 25.3966 14.4847C25.6148 14.6727 25.7461 14.8985 25.8124 15.1294C25.8799 15.3623 25.8823 15.6004 25.8449 15.8078C25.7919 16.099 25.6702 16.3228 25.5485 16.3749C25.5232 16.382 25.5027 16.3963 25.487 16.4137C25.481 16.4208 25.475 16.4259 25.4714 16.429C25.1725 16.711 24.2699 16.8632 23.3456 16.8857C22.4177 16.9082 21.4813 16.7989 21.1198 16.5567L21.1138 16.5526C21.109 16.5496 21.1042 16.5455 21.0981 16.5404C21.0752 16.521 21.0439 16.5087 21.0078 16.5087C20.9379 16.5087 20.8812 16.5567 20.8812 16.616C20.8812 16.8275 20.8342 17.1381 20.7149 17.4436C20.6257 17.6735 20.4968 17.9003 20.3172 18.0781C20.1557 18.2385 20.0798 18.5429 20.0316 18.7984C19.9195 18.3764 19.8822 18.1057 19.8738 17.7664V17.7593L19.8725 17.7582ZM25.6594 21.8184C25.6245 21.848 25.5883 21.8766 25.5522 21.9042C25.0328 22.2965 24.3881 22.4957 23.6071 22.4886H23.5975C22.9781 22.507 22.2876 22.2659 21.6874 21.8102C21.1319 21.3882 20.6571 20.7844 20.3872 20.0334C20.3787 20.0038 20.3546 19.9772 20.3197 19.9629C20.257 19.9374 20.1811 19.9599 20.151 20.013C20.0437 20.202 19.8196 20.1877 19.722 20.1816C19.7087 20.1806 19.6979 20.1795 19.6774 20.1795C19.5978 20.1785 19.481 20.0528 19.3617 19.8873C19.105 19.5328 18.8784 19.0158 18.8519 18.9504C18.7555 18.7093 18.7109 18.4365 18.7459 18.2077C18.7652 18.0769 18.811 17.9635 18.8881 17.8828C18.958 17.8092 19.058 17.7632 19.193 17.7571C19.3099 17.752 19.4521 17.7765 19.6232 17.8368C19.6376 18.225 19.6919 18.5377 19.8582 19.1057C19.9112 19.2876 19.9859 19.351 20.0847 19.3305C20.1968 19.307 20.2221 19.164 20.257 18.9688C20.3016 18.7206 20.3655 18.3609 20.5101 18.2179C20.7126 18.0166 20.8572 17.7642 20.956 17.5109C21.0512 17.2657 21.103 17.0174 21.1247 16.812C21.5983 17.0245 22.4853 17.1206 23.3541 17.0991C24.2194 17.0777 25.0786 16.9398 25.5088 16.6833C25.5546 16.8049 25.6366 16.9561 25.7715 17.1267C25.933 17.3321 26.1704 17.5712 26.5078 17.8297C26.7621 18.0248 26.8573 18.5489 26.9176 18.883C26.9573 19.1037 26.9862 19.2611 27.1068 19.2825C27.2297 19.304 27.3249 19.1415 27.4345 18.6869C27.4851 18.4784 27.5418 18.2118 27.5912 17.9134C27.7623 17.8521 27.9021 17.8276 28.0142 17.8317C28.1407 17.8358 28.2311 17.8797 28.2938 17.9482C28.3637 18.0248 28.4034 18.1341 28.4191 18.2608C28.4492 18.4989 28.395 18.787 28.2938 19.0394C28.2673 19.1048 28.0407 19.6217 27.784 19.9763C27.6635 20.1418 27.5478 20.2664 27.4683 20.2685C27.449 20.2685 27.437 20.2695 27.4237 20.2705C27.3261 20.2766 27.1019 20.2909 26.9947 20.1019C26.9646 20.0488 26.8887 20.0263 26.826 20.0519C26.7911 20.0662 26.7669 20.0927 26.7585 20.1234C26.497 20.8519 26.1355 21.4179 25.6655 21.8133C25.6631 21.8153 25.6607 21.8174 25.6583 21.8194L25.6594 21.8184ZM15.1608 31.7849L15.1632 33.1622C16.5755 33.2572 17.9783 33.4483 19.3727 33.7272C20.7465 34.002 22.1131 34.3627 23.4736 34.8V28.7413C22.43 28.2458 21.1297 27.8443 19.7367 27.547C18.2436 27.2282 16.648 27.0289 15.1527 26.9605L15.1551 28.5871L16.1228 28.6719C16.13 28.6729 16.136 28.6739 16.1421 28.6749C16.3313 28.7178 16.4614 28.8547 16.5108 29.01C16.5325 29.0795 16.5397 29.1531 16.5277 29.2246C16.5156 29.2981 16.4843 29.3697 16.4325 29.431C16.4168 29.4483 16.4 29.4657 16.3807 29.481C16.4952 29.5362 16.5843 29.6118 16.6434 29.6956C16.6892 29.762 16.7157 29.8325 16.7217 29.904C16.7277 29.9786 16.7097 30.0522 16.6663 30.1196C16.6084 30.2095 16.5036 30.2861 16.3482 30.3331C16.3976 30.3771 16.4361 30.4261 16.4614 30.4792C16.4952 30.5477 16.5084 30.6202 16.5036 30.6917C16.4988 30.7633 16.4735 30.8338 16.4313 30.8981C16.3482 31.0228 16.1975 31.1188 15.9878 31.1413C16.0204 31.1944 16.0397 31.2527 16.0445 31.3129C16.0505 31.3804 16.0372 31.4499 16.0059 31.5152C15.9432 31.645 15.8047 31.7553 15.5817 31.7921C15.5552 31.7962 15.3829 31.7942 15.1623 31.786L15.1608 31.7849ZM15.0294 31.5663C14.8836 31.5591 14.7257 31.5499 14.5799 31.5387C14.3654 31.5224 14.1919 31.506 14.163 31.4958C13.9774 31.2884 13.9955 30.8307 14.0111 30.4067C14.0159 30.284 14.0196 30.1645 14.0196 30.0685C14.0196 29.9847 14.0159 29.8631 14.0111 29.7354C13.9967 29.295 13.9786 28.7546 14.0834 28.7086L14.9595 28.7852C14.9788 28.7964 15.0029 28.8026 15.0282 28.8026C15.0439 28.8026 15.0595 28.7995 15.074 28.7954L16.0839 28.8833C16.1742 28.9068 16.2393 28.9804 16.2658 29.0652C16.2791 29.1081 16.2839 29.153 16.2767 29.1949C16.2706 29.2348 16.2538 29.2715 16.2273 29.3022C16.1851 29.3512 16.1116 29.386 16.0007 29.388C15.9826 29.387 15.9645 29.387 15.9453 29.387H15.9417L14.7739 29.2991C14.704 29.294 14.6438 29.3379 14.6377 29.3962C14.6317 29.4554 14.6835 29.5065 14.7522 29.5116L15.92 29.5995C15.9236 29.5995 15.9272 29.6005 15.9308 29.6005C15.9561 29.6015 15.9802 29.6026 16.0043 29.6015C16.2056 29.6138 16.3538 29.6976 16.4249 29.8008C16.4502 29.8376 16.4659 29.8764 16.4683 29.9142C16.4707 29.9489 16.4635 29.9826 16.443 30.0133C16.3887 30.0971 16.2465 30.1614 15.9898 30.1655C15.9091 30.1665 15.1547 30.1042 14.8944 30.0828L14.8498 30.0787C14.7799 30.0736 14.7185 30.1165 14.7124 30.1757C14.7064 30.235 14.757 30.2871 14.8269 30.2922L14.8715 30.2963C15.0824 30.3137 15.609 30.3576 15.8645 30.374C15.873 30.377 15.8826 30.378 15.8922 30.3791C16.0742 30.3964 16.1827 30.47 16.226 30.5589C16.2441 30.5967 16.2526 30.6365 16.2489 30.6764C16.2465 30.7162 16.2321 30.755 16.2092 30.7898C16.1549 30.8715 16.0429 30.9328 15.8802 30.9298C15.8561 30.9298 15.7079 30.9185 15.5235 30.9052C15.2005 30.8807 14.8318 30.8521 14.7342 30.8439C14.6643 30.8388 14.6028 30.8817 14.5968 30.941C14.5908 31.0003 14.6414 31.0524 14.7113 31.0575C14.839 31.0677 15.2355 31.0994 15.503 31.1198H15.5066C15.5247 31.129 15.5464 31.1351 15.5681 31.1351C15.6548 31.1372 15.7199 31.175 15.7549 31.2271C15.7753 31.2567 15.7874 31.2904 15.7898 31.3262C15.7922 31.3619 15.7862 31.3987 15.7705 31.4314C15.738 31.4988 15.6609 31.5581 15.5319 31.5785C15.5078 31.5826 15.303 31.5775 15.0535 31.5653C15.0475 31.5642 15.0402 31.5642 15.033 31.5642H15.0282L15.0294 31.5663ZM26.3669 23.6704C25.7788 23.3558 25.7487 22.9297 25.7161 22.4771C25.7065 22.3514 25.698 22.2237 25.6739 22.097C25.1148 22.5037 24.4279 22.709 23.6048 22.7019C22.9324 22.7223 22.1925 22.47 21.5514 21.9928C21.5104 22.1522 21.4983 22.3157 21.4863 22.4761C21.4562 22.8909 21.4284 23.2843 20.9681 23.5898C21.796 24.1313 22.7444 24.4143 23.6916 24.4255C24.6207 24.4367 25.551 24.1895 26.3669 23.6704ZM31.4198 26.7806C30.0918 26.8715 28.7084 27.0595 27.4044 27.3385C25.9896 27.6409 24.6664 28.0496 23.6012 28.5553C22.5371 28.0485 21.2127 27.6398 19.7979 27.3385C18.494 27.0595 17.1106 26.8715 15.7825 26.7806C15.815 26.1615 16.2476 25.623 16.8478 25.1867C17.6937 24.5727 18.8675 24.1609 19.7496 24.0046C20.1834 23.928 20.5052 23.8299 20.7462 23.7165C21.6332 24.3163 22.6611 24.6289 23.6902 24.6412C24.7098 24.6534 25.7293 24.3714 26.6126 23.7819C26.8319 23.8677 27.1079 23.9423 27.455 24.0046C28.3371 24.162 29.5108 24.5727 30.3568 25.1867C30.9569 25.623 31.3884 26.1604 31.4221 26.7806L31.4198 26.7806ZM31.215 31.1413C31.0053 31.1188 30.8546 31.0217 30.7715 30.8981C30.7293 30.8348 30.704 30.7632 30.6992 30.6917C30.6944 30.6202 30.7076 30.5466 30.7414 30.4792C30.7679 30.4261 30.8052 30.377 30.8546 30.3331C30.698 30.2861 30.5943 30.2095 30.5365 30.1196C30.4931 30.0521 30.4751 29.9786 30.4811 29.904C30.4859 29.8335 30.5136 29.762 30.5594 29.6956C30.6173 29.6118 30.7064 29.5362 30.8221 29.481C30.8028 29.4657 30.786 29.4483 30.7703 29.4309C30.7185 29.3707 30.6872 29.2991 30.6751 29.2246C30.663 29.153 30.6703 29.0785 30.692 29.01C30.7414 28.8547 30.8715 28.7178 31.0607 28.6749C31.0667 28.6739 31.074 28.6728 31.08 28.6718L32.0477 28.587L32.0501 26.9605C30.5546 27.0289 28.9589 27.2281 27.4661 27.5469C26.073 27.8442 24.7715 28.2458 23.7292 28.7413V34.8C25.0897 34.3627 26.4563 34.002 27.8301 33.7272C29.2256 33.4482 30.6283 33.2572 32.0396 33.1622L32.042 31.7849C31.8215 31.7931 31.648 31.7961 31.6226 31.791C31.3997 31.7543 31.2611 31.6439 31.1984 31.5142C31.1671 31.4488 31.1551 31.3793 31.1599 31.3119C31.1647 31.2526 31.184 31.1933 31.2165 31.1402L31.215 31.1413ZM33.0383 31.4958C33.0093 31.506 32.8358 31.5224 32.6213 31.5387C32.4755 31.55 32.3176 31.5592 32.1718 31.5663H32.167C32.1598 31.5663 32.1537 31.5663 32.1465 31.5673C31.8971 31.5796 31.691 31.5847 31.6681 31.5806C31.5391 31.5592 31.4632 31.5009 31.4295 31.4335C31.4126 31.3998 31.4066 31.364 31.4102 31.3282C31.4126 31.2925 31.4247 31.2588 31.4451 31.2291C31.4813 31.177 31.5452 31.1392 31.6319 31.1372C31.6548 31.1362 31.6753 31.1311 31.6934 31.1219H31.697C31.9645 31.1014 32.3598 31.0698 32.4887 31.0595C32.5586 31.0544 32.6092 31.0013 32.6032 30.9431C32.5972 30.8838 32.5345 30.8409 32.4658 30.846C32.3682 30.8542 31.9995 30.8828 31.6765 30.9073C31.4921 30.9206 31.3439 30.9318 31.3198 30.9318C31.1571 30.9339 31.0451 30.8736 30.9908 30.7919C30.9679 30.7571 30.9535 30.7183 30.9511 30.6784C30.9487 30.6386 30.9559 30.5987 30.974 30.5609C31.0173 30.4731 31.1258 30.3985 31.3078 30.3811C31.3174 30.3801 31.327 30.3781 31.3355 30.376C31.5898 30.3597 32.1176 30.3157 32.3285 30.2984L32.3731 30.2943C32.443 30.2892 32.4936 30.236 32.4876 30.1778C32.4815 30.1186 32.4189 30.0756 32.3502 30.0808L32.3056 30.0848C32.0453 30.1063 31.2909 30.1686 31.2102 30.1676C30.9535 30.1625 30.8113 30.0991 30.757 30.0154C30.7378 29.9847 30.7293 29.951 30.7317 29.9163C30.7341 29.8785 30.7498 29.8396 30.7751 29.8028C30.8462 29.7007 30.9956 29.6159 31.1957 29.6036C31.2198 29.6036 31.2439 29.6036 31.2692 29.6026C31.2728 29.6026 31.2764 29.6016 31.28 29.6016L32.4478 29.5137C32.5177 29.5086 32.5683 29.4565 32.5623 29.3983C32.5562 29.339 32.4948 29.2961 32.4261 29.3012L31.2584 29.3891H31.2547C31.2367 29.3891 31.2174 29.3891 31.1993 29.3901C31.0884 29.387 31.0149 29.3533 30.9727 29.3043C30.9462 29.2736 30.9306 29.2358 30.9233 29.197C30.9161 29.1551 30.9209 29.1101 30.9342 29.0672C30.9607 28.9824 31.0258 28.9089 31.1161 28.8854L32.126 28.7975C32.1405 28.8026 32.1561 28.8046 32.1718 28.8046C32.1971 28.8046 32.2212 28.7985 32.2405 28.7873L33.1166 28.7106C33.2214 28.7566 33.2033 29.2971 33.1889 29.7375C33.1841 29.8652 33.1804 29.9857 33.1804 30.0705C33.1804 30.1666 33.1853 30.2861 33.1889 30.4087C33.2045 30.8327 33.2214 31.2905 33.037 31.4979L33.0383 31.4958Z" fill="#A239AB"/>
</svg>
