<svg width="24" height="24" viewBox="0 0 24 24" fill="none" xmlns="http://www.w3.org/2000/svg">
<path d="M16.5728 18.3889C14.5087 19.9912 11.9116 20.7466 9.31024 20.5014C6.70884 20.2561 4.29865 19.0287 2.57029 17.0689C0.841921 15.1092 -0.0747104 12.5644 0.0069793 9.95251C0.088669 7.34067 1.16254 4.85813 3.01 3.01021C4.85778 1.16262 7.34015 0.0886752 9.9518 0.00697966C12.5635 -0.0747159 15.1081 0.841981 17.0677 2.57047C19.0273 4.29896 20.2547 6.70932 20.4999 9.31091C20.7451 11.9125 19.9897 14.5098 18.3876 16.574L23.5922 21.779C23.7612 21.9359 23.8848 22.1356 23.9498 22.3569C24.0149 22.5782 24.0191 22.8129 23.962 23.0364C23.9049 23.2599 23.7885 23.4638 23.6252 23.6267C23.4619 23.7896 23.2577 23.9054 23.0341 23.962C22.8108 24.019 22.5764 24.0149 22.3553 23.9502C22.1342 23.8854 21.9346 23.7623 21.7774 23.5939L16.5728 18.3889ZM17.9767 10.2732C17.9919 9.2521 17.8039 8.23813 17.4237 7.29032C17.0435 6.3425 16.4787 5.47976 15.762 4.75227C15.0453 4.02478 14.1911 3.44707 13.2492 3.05274C12.3072 2.65842 11.2962 2.45535 10.2751 2.45535C9.25389 2.45535 8.24291 2.65842 7.30094 3.05274C6.35897 3.44707 5.5048 4.02478 4.78813 4.75227C4.07145 5.47976 3.50658 6.3425 3.12637 7.29032C2.74616 8.23813 2.5582 9.2521 2.57343 10.2732C2.60359 12.2961 3.42827 14.2259 4.86933 15.6457C6.31038 17.0655 8.25212 17.8614 10.2751 17.8614C12.298 17.8614 14.2397 17.0655 15.6808 15.6457C17.1218 14.2259 17.9465 12.2961 17.9767 10.2732Z" fill="white"/>
</svg>
