<svg width="48" height="48" viewBox="0 0 48 48" fill="none" xmlns="http://www.w3.org/2000/svg">
<circle cx="24" cy="24" r="24" fill="#E9E0E9"/>
<path d="M31.2729 15.4121C30.3312 15.4121 29.4826 15.9795 29.1218 16.8494C28.762 17.7184 28.9608 18.7202 29.6271 19.3855C30.2924 20.0508 31.2933 20.2506 32.1632 19.8898C33.0332 19.53 33.6005 18.6814 33.6005 17.7397C33.6005 16.4547 32.5579 15.4121 31.2729 15.4121ZM32.4212 17.3004L31.3223 18.3992H31.3214C31.1352 18.5854 30.8336 18.5854 30.6464 18.3992L30.1295 17.8823C30.0926 17.8464 30.0713 17.7969 30.0713 17.7446C30.0713 17.6932 30.0926 17.6437 30.1295 17.6078C30.2051 17.5322 30.3283 17.5322 30.4039 17.6078L30.9208 18.1247C30.9373 18.1422 30.9596 18.1509 30.9829 18.1509C31.0062 18.1519 31.0295 18.1422 31.045 18.1247L32.1467 17.0259C32.2233 16.9551 32.3426 16.9571 32.4163 17.0308C32.49 17.1045 32.492 17.2238 32.4212 17.3004Z" fill="#A239AB"/>
<path d="M31.2722 20.4732C29.768 20.4712 28.5498 19.2531 28.5488 17.7498C28.5488 17.4288 28.607 17.1107 28.7195 16.811H14.1877C14.0092 16.811 13.8638 16.9555 13.8638 17.134V27.2773H31.3672V20.4671L31.2722 20.4732ZM22.4787 18.6373L25.4503 18.6363C25.557 18.6363 25.6443 18.7236 25.6443 18.8303C25.6443 18.9379 25.557 19.0242 25.4503 19.0242H22.4864C22.3798 19.0242 22.2925 18.9379 22.2925 18.8303C22.2925 18.7236 22.3798 18.6363 22.4864 18.6363L22.4787 18.6373ZM22.4787 19.7235L27.77 19.7225C27.8767 19.7225 27.964 19.8098 27.964 19.9165C27.964 20.0241 27.8767 20.1104 27.77 20.1104H22.4864C22.3798 20.1104 22.2925 20.0241 22.2925 19.9165C22.2925 19.8098 22.3798 19.7225 22.4864 19.7225L22.4787 19.7235ZM22.4787 20.8068H28.8048C28.9115 20.8068 28.9988 20.8931 28.9988 21.0008C28.9988 21.1074 28.9115 21.1947 28.8048 21.1947H22.4864C22.3798 21.1947 22.2925 21.1074 22.2925 21.0008C22.2925 20.8931 22.3798 20.8068 22.4864 20.8068H22.4787ZM23.5494 26.4968L15.62 26.4958C15.5133 26.4958 15.426 26.4095 15.426 26.3018C15.426 26.1952 15.5133 26.1079 15.62 26.1079H23.5571C23.6638 26.1079 23.7511 26.1952 23.7511 26.3018C23.7511 26.4095 23.6638 26.4958 23.5571 26.4958L23.5494 26.4968ZM15.4261 25.1797C15.4261 25.0731 15.5134 24.9858 15.6201 24.9858H18.4132C18.5198 24.9858 18.6071 25.0731 18.6071 25.1797C18.6071 25.2864 18.5198 25.3737 18.4132 25.3737H15.6201C15.5134 25.3727 15.4271 25.2864 15.4261 25.1797ZM29.9085 24.8025C29.9075 25.0517 29.7058 25.2535 29.4566 25.2544H20.0705C19.8203 25.2535 19.6186 25.0498 19.6186 24.7996V24.2827H15.783C15.5328 24.2827 15.3301 24.08 15.3301 23.8298V18.6083C15.3301 18.3581 15.5328 18.1554 15.783 18.1554H21.3041C21.5543 18.1554 21.757 18.3581 21.757 18.6083V22.0298H29.4486C29.694 22.0298 29.8957 22.2257 29.9005 22.472L29.9085 24.8025Z" fill="#A239AB"/>
<path d="M19.6193 18.5435V20.4579C19.6184 20.5015 19.5951 20.5413 19.5582 20.5636C19.5204 20.5869 19.4748 20.5888 19.4351 20.5684L18.7756 20.2348C18.6292 20.1611 18.4565 20.1611 18.3101 20.2348L17.6506 20.5655V20.5665C17.6128 20.5898 17.5643 20.5898 17.5265 20.5665C17.4896 20.5442 17.4663 20.5034 17.4673 20.4598V18.5463L19.6193 18.5435Z" fill="#A239AB"/>
<path d="M29.4499 22.419H20.0718C20.0369 22.419 20.0078 22.448 20.0078 22.4839V24.8115C20.0078 24.828 20.0146 24.8445 20.0262 24.8571C20.0388 24.8687 20.0553 24.8755 20.0718 24.8755H29.4499C29.4664 24.8755 29.4829 24.8687 29.4955 24.8571C29.5072 24.8445 29.5139 24.828 29.5139 24.8115V22.4733C29.5091 22.4413 29.4819 22.419 29.4499 22.419ZM22.0171 23.9115C22.0539 23.9474 22.0743 23.9969 22.0743 24.0483C22.0743 24.0997 22.0539 24.1491 22.0171 24.185C21.9802 24.2209 21.9307 24.2413 21.8793 24.2422C21.8289 24.2413 21.7795 24.2209 21.7426 24.185L21.4836 23.9261L21.2247 24.185H21.2257C21.1888 24.2209 21.1394 24.2413 21.0879 24.2422C21.0365 24.2422 20.9871 24.2219 20.9512 24.185C20.9144 24.1491 20.893 24.0997 20.893 24.0483C20.893 23.9969 20.9144 23.9474 20.9512 23.9115L21.2102 23.6526L20.9512 23.3936C20.9144 23.3577 20.893 23.3083 20.893 23.2569C20.893 23.2055 20.9144 23.156 20.9512 23.1201C21.0269 23.0445 21.15 23.0445 21.2257 23.1201L21.4846 23.3791L21.7436 23.1201H21.7426C21.8183 23.0445 21.9414 23.0445 22.0171 23.1201C22.0539 23.156 22.0743 23.2055 22.0743 23.2569C22.0743 23.3083 22.0539 23.3577 22.0171 23.3936L21.7581 23.6526L22.0171 23.9115ZM24.2079 23.9115H24.2069C24.2826 23.9872 24.2826 24.1094 24.2069 24.185C24.1313 24.2607 24.0091 24.2607 23.9334 24.185L23.6745 23.9261L23.4155 24.185C23.3796 24.2219 23.3302 24.2422 23.2788 24.2422C23.2274 24.2413 23.1789 24.2209 23.142 24.185C23.0664 24.1094 23.0664 23.9872 23.142 23.9115L23.401 23.6526L23.142 23.3936C23.1032 23.3577 23.0809 23.3083 23.08 23.2559C23.079 23.2026 23.0994 23.1521 23.1372 23.1153C23.174 23.0774 23.2245 23.0571 23.2778 23.058C23.3302 23.059 23.3796 23.0813 23.4155 23.1201L23.6745 23.3791L23.9334 23.1201C24.0091 23.0483 24.1284 23.0503 24.2021 23.125C24.2767 23.1987 24.2787 23.318 24.2069 23.3936L23.948 23.6525L24.2079 23.9115ZM26.3987 23.9115H26.3978C26.4734 23.9872 26.4734 24.1094 26.3978 24.185C26.3609 24.2209 26.3114 24.2413 26.261 24.2422C26.2096 24.2413 26.1602 24.2209 26.1233 24.185L25.8643 23.9261L25.6054 24.185H25.6064C25.5695 24.2209 25.521 24.2413 25.4696 24.2422C25.4182 24.2413 25.3688 24.2209 25.3319 24.185C25.2563 24.1094 25.2563 23.9872 25.3319 23.9115L25.5909 23.6526L25.3319 23.3936C25.2941 23.3577 25.2718 23.3083 25.2708 23.2559C25.2698 23.2026 25.2902 23.1521 25.3271 23.1153C25.3649 23.0774 25.4153 23.0571 25.4677 23.058C25.5201 23.059 25.5705 23.0813 25.6064 23.1201L25.8653 23.3791L26.1243 23.1201H26.1233C26.1999 23.0483 26.3192 23.0503 26.3929 23.125C26.4666 23.1987 26.4685 23.318 26.3977 23.3936L26.1388 23.6525L26.3987 23.9115ZM28.5896 23.9115H28.5886C28.6642 23.9872 28.6642 24.1094 28.5886 24.185C28.5517 24.2209 28.5023 24.2413 28.4509 24.2422C28.3995 24.2422 28.35 24.2219 28.3141 24.185L28.0552 23.9261L27.7962 24.185H27.7972C27.7216 24.2607 27.5984 24.2607 27.5227 24.185C27.4471 24.1094 27.4471 23.9872 27.5227 23.9115L27.7817 23.6526L27.5227 23.3936C27.4519 23.318 27.4539 23.1987 27.5276 23.125C27.6013 23.0503 27.7206 23.0484 27.7972 23.1201L28.0561 23.3791L28.3151 23.1201H28.3141C28.3907 23.0484 28.51 23.0503 28.5837 23.125C28.6574 23.1987 28.6594 23.318 28.5886 23.3936L28.3296 23.6526L28.5896 23.9115Z" fill="#A239AB"/>
<path d="M21.305 18.5435H20.0122V20.4579C20.0112 20.6354 19.92 20.8002 19.7688 20.8943C19.6873 20.9447 19.5932 20.9719 19.4972 20.9719C19.4167 20.9719 19.3372 20.9525 19.2644 20.9156L18.605 20.582C18.5691 20.5636 18.5274 20.5636 18.4915 20.582L17.8272 20.9205C17.6671 21.001 17.478 20.9932 17.3248 20.9001C17.1735 20.806 17.0804 20.6412 17.0794 20.4627V18.5493H15.7867C15.7508 18.5493 15.7217 18.5784 15.7217 18.6133V23.8377C15.7217 23.8552 15.7285 23.8717 15.7411 23.8833C15.7527 23.8959 15.7692 23.9027 15.7867 23.9027H19.6195V22.4722C19.6195 22.222 19.8222 22.0193 20.0715 22.0193H21.3642L21.3652 18.6085C21.3652 18.5746 21.3389 18.5464 21.305 18.5435ZM17.8445 23.1112H16.6991C16.5924 23.1112 16.5052 23.0239 16.5052 22.9173C16.5052 22.8096 16.5924 22.7233 16.6991 22.7233H17.8445C17.9521 22.7233 18.0385 22.8096 18.0385 22.9173C18.0385 23.0239 17.9521 23.1112 17.8445 23.1112ZM17.8445 22.2238H16.6991C16.5924 22.2238 16.5052 22.1366 16.5052 22.0299C16.5052 21.9232 16.5924 21.8359 16.6991 21.8359H17.8445C17.9521 21.8359 18.0385 21.9232 18.0385 22.0299C18.0385 22.1366 17.9521 22.2238 17.8445 22.2238Z" fill="#A239AB"/>
<path d="M31.3673 27.666V29.4379C31.3673 29.5242 31.3334 29.6057 31.2733 29.6658C31.2122 29.7269 31.1297 29.7608 31.0444 29.7608H14.1877C14.0092 29.7608 13.8638 29.6154 13.8638 29.4369V27.666L31.3673 27.666Z" fill="#A239AB"/>
<path d="M20.687 30.1479H24.546V31.5135H20.687V30.1479Z" fill="#A239AB"/>
<path d="M18.3264 31.9019H26.9073C27.0857 31.9019 27.2302 32.0803 27.2302 32.2248V33.8648C27.2302 34.0432 27.0857 34.1878 26.9073 34.1878H18.3264C18.1479 34.1878 18.0034 34.0093 18.0034 33.8648V32.2248C18.0034 32.0464 18.1479 31.9019 18.3264 31.9019Z" fill="#A239AB"/>
</svg>
