<svg width="24" height="25" viewBox="0 0 24 25" fill="none" xmlns="http://www.w3.org/2000/svg">
<path d="M12.154 11.2421L8.08868 5.55371H5.92041L10.9563 12.5996L11.5902 13.486L15.9006 19.5221H18.0689L12.7852 12.1284L12.154 11.2421Z" fill="#FFFBFB"/>
<path d="M14.8262 20.7998L14.9755 21.0125H15.2354H20H20.9619L20.4092 20.2252L14.1593 11.3228L19.8565 4.84259L20.5863 4.01245H19.481H18.0696H17.8435L17.6942 4.18218L12.939 9.58723L9.17385 4.22512L9.02451 4.01245H8.76465H4H3.03789L3.59082 4.7998L9.61157 13.3731L3.62451 20.1823L2.89458 21.0125H4H5.41144H5.63764L5.78698 20.8426L10.8288 15.1068L14.8262 20.7998ZM2.84021 2.01245H21.1598C21.9 2.01245 22.5 2.61245 22.5 3.35266V21.6722C22.5 22.4125 21.9 23.0125 21.1598 23.0125H2.84021C2.1 23.0125 1.5 22.4125 1.5 21.6722V3.35266C1.5 2.61245 2.1 2.01245 2.84021 2.01245Z" fill="black" stroke="#FFFDFD"/>
</svg>
